<svg id="Background" xmlns="http://www.w3.org/2000/svg" viewBox="0 0 500 500"><defs><style>.cls-1{fill:#ff473c;}.cls-2{fill:#fff;}.cls-3{fill:#db9912;}.cls-4{fill:#825425;}.cls-5{fill:#bd1b21;}.cls-6{fill:#c08017;}.cls-7{fill:#f7b41d;}.cls-8{fill:#b97b1b;}.cls-9{fill:#e62d25;}.cls-10{fill:#e29d0e;}.cls-11{fill:#ce4040;}.cls-12{fill:#ae3734;}.cls-13{fill:#e73f3f;}.cls-14{fill:#00913a;}.cls-15{fill:#2fad4d;}.cls-16{fill:#cb1c2a;}.cls-17{fill:none;stroke:#e23341;stroke-linecap:round;stroke-miterlimit:10;stroke-width:1.55px;}.cls-18{fill:#e23341;}.cls-19{fill:#ba1c22;}.cls-20{fill:#9e2025;}.cls-21,.cls-22,.cls-23,.cls-24,.cls-25{fill:#94b8ff;}.cls-21{opacity:0.5;}.cls-22{opacity:0.23;}.cls-23{opacity:0.27;}.cls-24{opacity:0.28;}.cls-25{opacity:0.17;}.cls-26{fill:#333;}.cls-27{fill:#ffba4a;}.cls-28{fill:#f7931e;}.cls-29{fill:#f2f2f2;}.cls-30{fill:#ed3b3b;}.cls-31{fill:#00d55d;}.cls-32{fill:#8c6239;}.cls-33{fill:#fff259;}.cls-34{fill:#ffe4c2;}.cls-35{fill:#ffc0cf;}</style></defs><title>main</title><rect class="cls-1" width="500" height="500"/><rect class="cls-2" x="13.34" y="13.34" width="473.31" height="473.31"/><circle class="cls-3" cx="278.52" cy="109.89" r="1.36" transform="translate(-19.49 138.86) rotate(-27.08)"/><ellipse class="cls-4" cx="265.83" cy="117.58" rx="6.49" ry="5.92" transform="translate(-24.38 133.92) rotate(-27.08)"/><circle class="cls-3" cx="252.17" cy="123.37" r="1.36" transform="translate(-28.51 128.34) rotate(-27.08)"/><path class="cls-3" d="M246.44,88h22.64a0,0,0,0,1,0,0V104.3a11.32,11.32,0,0,1-11.32,11.32h0a11.32,11.32,0,0,1-11.32-11.32V88a0,0,0,0,1,0,0Z" transform="translate(533.61 75.08) rotate(152.92)"/><path class="cls-5" d="M274.13,109A112.65,112.65,0,0,1,254,119.53q-1-2.13-2.05-4.3a110.21,110.21,0,0,0,20.16-10Z"/><path class="cls-6" d="M251.48,123.6a96,96,0,0,0,27.63-14.13q-2.92-.55-5.87-1.37a93.52,93.52,0,0,1-20.2,9.66Z"/><path class="cls-3" d="M252.86,126.69A79.66,79.66,0,0,0,280.8,112.4a0.58,0.58,0,0,0,.15-0.72l-1.26-2.47a0.58,0.58,0,0,0-.87-0.19,79.66,79.66,0,0,1-27.53,14.08,0.58,0.58,0,0,0-.36.82l1.26,2.47A0.58,0.58,0,0,0,252.86,126.69Z"/><circle class="cls-7" cx="223.19" cy="112.13" r="1.36" transform="translate(35.76 277.24) rotate(-68.05)"/><ellipse class="cls-8" cx="236.51" cy="118.66" rx="5.92" ry="6.49" transform="translate(38.06 293.68) rotate(-68.05)"/><circle class="cls-7" cx="250.63" cy="123.19" r="1.36" transform="translate(42.69 309.62) rotate(-68.05)"/><path class="cls-7" d="M243.14,88.4h0a11.32,11.32,0,0,1,11.32,11.32V116a0,0,0,0,1,0,0H231.82a0,0,0,0,1,0,0V99.72A11.32,11.32,0,0,1,243.14,88.4Z" transform="translate(55.83 -83.47) rotate(21.95)"/><path class="cls-9" d="M227.47,110.81a101.51,101.51,0,0,0,21,8.68l1.69-4.42a100,100,0,0,1-21-8.24Z"/><path class="cls-10" d="M251.34,123.37a88.58,88.58,0,0,1-28.78-11.6q2.8-.84,5.64-1.9a87,87,0,0,0,21,7.93Z"/><path class="cls-7" d="M250.24,126.56a79.66,79.66,0,0,1-29.1-11.73,0.58,0.58,0,0,1-.22-0.7l1-2.58a0.58,0.58,0,0,1,.85-0.27,79.66,79.66,0,0,0,28.68,11.56,0.58,0.58,0,0,1,.43.78l-1,2.58A0.58,0.58,0,0,1,250.24,126.56Z"/><path class="cls-11" d="M266.46,92.56a9.29,9.29,0,0,0-.9-10.85,1.46,1.46,0,0,0-1-.5A14.74,14.74,0,0,0,253.35,85l0.93,5.45Z"/><ellipse class="cls-12" cx="260.5" cy="91" rx="3.24" ry="6.27" transform="translate(132.43 335.41) rotate(-81.6)"/><path class="cls-11" d="M237.15,92.56a9.29,9.29,0,0,1,.9-10.85,1.46,1.46,0,0,1,1-.5A14.74,14.74,0,0,1,250.26,85l-0.93,5.45Z"/><ellipse class="cls-12" cx="243.11" cy="91" rx="6.27" ry="3.24" transform="translate(-10.68 36.49) rotate(-8.4)"/><path class="cls-13" d="M253.47,85a13.7,13.7,0,0,1,1.12,2.74,3.66,3.66,0,0,1-.13,2.91c-0.32.47-1.53,0.64-2.52,0.64-1.28,0-2.6-.32-2.74-0.81a5,5,0,0,1,0-2.5,13.46,13.46,0,0,1,.88-2.93Z"/><path class="cls-14" d="M251.7,86.85c-2.27-5.93-3.75-12.33-2.4-18.39a7.37,7.37,0,0,1,0-1c-0.39,1.32-.71,3.2-1.94,3.81a5.67,5.67,0,0,1-4,.39A3.69,3.69,0,0,1,245.6,75c0,1.44-1.6,2.71-2.95,3.22a5.59,5.59,0,0,1,2.9,2.57,4.19,4.19,0,0,1-.27,3.33c1.38-.44,2.25-0.78,3.54-0.12s1.23,0.87,3.11,3.66A2.75,2.75,0,0,1,251.7,86.85Z"/><path class="cls-15" d="M251.7,86.85a7.54,7.54,0,0,1,.58-3.59,5.82,5.82,0,0,1,3.35-2.7,5,5,0,0,1-3.3-3.24c-0.49-1.53.75-3,1.73-4.29a1,1,0,0,1-.85.19,4.15,4.15,0,0,1-3.54-2.87,8.29,8.29,0,0,1-.38-1.88C248,74.51,249.43,80.92,251.7,86.85Z"/><path class="cls-14" d="M253.86,89.88c5.84,2.49,11.47,5.89,14.88,11.07a7.37,7.37,0,0,1,.75.69c-0.67-1.2-1.8-2.73-1.39-4a5.67,5.67,0,0,1,2.52-3.16,3.69,3.69,0,0,1-4-.7c-1-1-.84-3-0.26-4.35a5.59,5.59,0,0,1-3.86.3,4.19,4.19,0,0,1-2.21-2.51c-0.65,1.3-1,2.16-2.38,2.63s-1.48.28-4.79-.31A2.75,2.75,0,0,1,253.86,89.88Z"/><path class="cls-15" d="M253.86,89.88A7.54,7.54,0,0,1,256,92.79a5.82,5.82,0,0,1-.39,4.29,5,5,0,0,1,4.62-.11c1.44,0.71,1.65,2.64,1.87,4.23a1,1,0,0,1,.46-0.74,4.15,4.15,0,0,1,4.52-.55,8.29,8.29,0,0,1,1.62,1C265.32,95.77,259.69,92.37,253.86,89.88Z"/><path class="cls-14" d="M250.76,89.78c-4.83,4.12-10.38,7.64-16.54,8.38a7.37,7.37,0,0,1-1,.36c1.38-.07,3.25-0.4,4.24.56a5.67,5.67,0,0,1,1.7,3.66,3.69,3.69,0,0,1,2.42-3.28c1.36-.47,3.09.6,4,1.71a5.59,5.59,0,0,1,1.45-3.59,4.19,4.19,0,0,1,3.23-.86c-0.87-1.16-1.48-1.86-1.3-3.3s0.41-1.45,2.41-4.15A2.75,2.75,0,0,1,250.76,89.78Z"/><path class="cls-15" d="M250.76,89.78a7.54,7.54,0,0,1-3.58.65,5.82,5.82,0,0,1-3.67-2.26,5,5,0,0,1-2,4.19c-1.28,1-3.1.3-4.62-.21a1,1,0,0,1,.46.74,4.15,4.15,0,0,1-1.53,4.29,8.29,8.29,0,0,1-1.65,1C240.38,97.42,245.93,93.89,250.76,89.78Z"/><circle class="cls-16" cx="253.65" cy="87.3" r="2.21" transform="translate(36.21 244.41) rotate(-54.84)"/><path class="cls-17" d="M255.37,86.84a1.79,1.79,0,0,1-.6,1.85"/><circle class="cls-18" cx="254.3" cy="88.96" r="0.17" transform="translate(35.14 245.65) rotate(-54.84)"/><circle class="cls-19" cx="251.94" cy="91.3" r="2.21" transform="translate(32.22 244.7) rotate(-54.84)"/><path class="cls-17" d="M253.66,90.83a1.79,1.79,0,0,1-.6,1.85"/><circle class="cls-18" cx="252.59" cy="92.95" r="0.17" transform="translate(31.15 245.94) rotate(-54.84)"/><circle class="cls-20" cx="249.29" cy="87.97" r="2.21" transform="translate(33.82 241.13) rotate(-54.84)"/><path class="cls-17" d="M251,87.5a1.79,1.79,0,0,1-.6,1.85"/><circle class="cls-18" cx="249.94" cy="89.62" r="0.17" transform="translate(32.75 242.36) rotate(-54.84)"/><path class="cls-21" d="M87.49,55.12c0.11,0.75.22,1.51,0.33,2.26a0.16,0.16,0,0,1-.11-0.1L86.78,56c-0.07-.09-0.1-0.1-0.18,0-0.2.25-.4,0.5-0.61,0.74s-0.16.19,0,.34l1.88,1.55a0.3,0.3,0,0,1,0,.45l-0.87,1.06a0.39,0.39,0,0,1-.18.13l-1.25.47a0.31,0.31,0,0,1-.46-0.22c-0.29-.78-0.59-1.55-0.87-2.33,0-.1-0.07-0.13-0.18-0.09l-1,.38c-0.12,0-.12.08-0.05,0.17L84,60a0.14,0.14,0,0,1,.05.12l-2-1c-0.1-.05-0.15,0-0.2.07-0.14.32-.28,0.65-0.43,1-0.05.11,0,.15,0.08,0.19L83.28,61a0.34,0.34,0,0,1,.2.11h0a0.29,0.29,0,0,1-.17,0l-1.44.17c-0.12,0-.16,0-0.1.16q0.2,0.49.37,1c0,0.11.08,0.13,0.19,0.09l2.35-.89a0.3,0.3,0,0,1,.42.19c0.16,0.42.31,0.84,0.48,1.27a0.44,0.44,0,0,1,0,.24l-0.21,1.28A0.32,0.32,0,0,1,85,65l-2.44-.41c-0.11,0-.16,0-0.17.12-0.05.35-.11,0.71-0.17,1.06,0,0.11,0,.13.11,0.12l0.94-.07a5.16,5.16,0,0,1,.77,0L82.09,67c-0.1.06-.11,0.11,0,0.21,0.21,0.27.4,0.55,0.6,0.83,0.07,0.11.12,0.12,0.23,0l1.78-1.4a0.18,0.18,0,0,1,0,.13c-0.2.48-.41,1-0.62,1.45,0,0.1,0,.12.08,0.14l1,0.16c0.2,0,.2,0,0.24-0.16L85.73,66a0.3,0.3,0,0,1,.37-0.27l1.35,0.22a0.36,0.36,0,0,1,.18.08l1.07,0.88a0.3,0.3,0,0,1,0,.45l-1.6,1.95c-0.05.06-.11,0.12,0,0.19L88,70.2c0.08,0.06.11,0,.14,0s0.16-.34.25-0.51c0.16-.32.29-0.66,0.49-1a0,0,0,0,1,0,0h0a0,0,0,0,0,0,0h0a0.23,0.23,0,0,1,0,.19c0,0.68.08,1.36,0.11,2,0,0.11,0,.14.15,0.13l1.06-.1c0.1,0,.14,0,0.13-0.15C90.26,70,90.15,69.27,90,68.52a0.14,0.14,0,0,1,.1.09l0.93,1.25c0.07,0.09.1,0.1,0.18,0,0.22-.28.45-0.56,0.68-0.83,0.07-.08.08-0.14,0-0.19l-0.07-.06L90,67.24a0.31,0.31,0,0,1,0-.47l0.87-1.06a0.36,0.36,0,0,1,.16-0.12l1.25-.47a0.32,0.32,0,0,1,.47.22c0.29,0.78.59,1.55,0.87,2.33,0,0.11.08,0.12,0.18,0.08l1-.38c0.12,0,.11-0.08.05-0.17l-0.88-1.29a0.14,0.14,0,0,1-.05-0.12l2.06,1c0.09,0,.12,0,0.16-0.06,0.15-.33.29-0.66,0.45-1,0-.1,0-0.14-0.07-0.18l-1.88-.76a0.26,0.26,0,0,1-.18-0.1h0a0.24,0.24,0,0,1,.13,0L96,64.54c0.11,0,.16,0,0.11-0.16-0.13-.32-0.26-0.64-0.37-1,0-.13-0.09-0.14-0.21-0.1l-2.35.88a0.3,0.3,0,0,1-.4-0.18c-0.16-.43-0.32-0.85-0.48-1.28a0.41,0.41,0,0,1,0-.23l0.22-1.31a0.31,0.31,0,0,1,.42-0.3l2.44,0.41c0.11,0,.16,0,0.17-0.12,0.05-.35.11-0.71,0.17-1.06,0-.1,0-0.12-0.11-0.12l-1.13.08a2.28,2.28,0,0,1-.58,0L94,60c0.62-.41,1.25-0.8,1.86-1.23l-0.77-1.08L93.19,59.2a0.16,0.16,0,0,1,0-.12l0.62-1.45c0-.1,0-0.14-0.09-0.16-0.33,0-.67-0.1-1-0.17-0.16,0-.2,0-0.23.17-0.13.81-.26,1.63-0.4,2.44a0.3,0.3,0,0,1-.37.27L90.41,60a0.41,0.41,0,0,1-.21-0.09l-1-.86a0.3,0.3,0,0,1,0-.46l1.6-1.94c0.08-.09.07-0.14,0-0.21l-0.81-.67c-0.08-.07-0.12-0.09-0.18,0-0.12.27-.25,0.54-0.39,0.81a4.45,4.45,0,0,1-.34.65,0,0,0,0,1,0,0,0,0,0,0,0,0,0h0a0.21,0.21,0,0,1,0-.18c0-.69-0.08-1.37-0.11-2.06,0-.1,0-0.13-0.14-0.12l-1.07.1C87.5,55,87.47,55,87.49,55.12Zm-3.95,6h0Zm10.8,3.63a0.05,0.05,0,0,1,0,0,0.05,0.05,0,0,0,0,0h0ZM87.69,61a4.82,4.82,0,0,1,.54-0.63l0.28,2-1.78-.9a4.8,4.8,0,0,1,.77-0.31A0.51,0.51,0,0,0,87.69,61Zm-1,2.34a0.63,0.63,0,0,0,0-.35,5.27,5.27,0,0,1-.25-0.72L88.09,63c0.14,0.06,0,.1,0,0.13l-1.55,1h0C86.56,63.87,86.59,63.61,86.64,63.35Zm1.48,1.77A0.57,0.57,0,0,0,87.84,65a7.62,7.62,0,0,1-.8-0.14l1.46-1.13a0.18,0.18,0,0,1,.1-0.06c0.05,0,0,.08,0,0.12q0.05,0.91.1,1.82h0A5.87,5.87,0,0,1,88.12,65.12Zm2.05-.23a4.58,4.58,0,0,1-.54.62l-0.27-2,1.78,0.89a4.54,4.54,0,0,1-.77.31A0.49,0.49,0,0,0,90.17,64.89Zm1-2.32a0.57,0.57,0,0,0,0,.3,5.89,5.89,0,0,1,.26.75l-1.71-.69s-0.1,0-.09-0.07a0.16,0.16,0,0,1,.08-0.07l1.55-1h0A7.63,7.63,0,0,1,91.21,62.58ZM89.13,60.3a4.14,4.14,0,0,1,.6.47,0.6,0.6,0,0,0,.29.13L90.82,61l-1.57,1.23a1.23,1.23,0,0,1,0-.35c0-.54-0.08-1.08-0.08-1.62a1.32,1.32,0,0,0-.3-0.27A1.32,1.32,0,0,1,89.13,60.3Z"/><path class="cls-21" d="M134.76,19.78l0.46,1.3a0.1,0.1,0,0,1-.08,0l-0.7-.62c-0.05,0-.07,0-0.11,0l-0.27.51c-0.07.13-.07,0.13,0.06,0.2l1.3,0.69a0.18,0.18,0,0,1,.08.26l-0.39.73a0.24,0.24,0,0,1-.09.1l-0.69.43a0.19,0.19,0,0,1-.3-0.07L133.25,22c0-.06-0.06-0.07-0.12,0l-0.55.34c-0.06,0-.06.06,0,0.11l0.68,0.66a0.09,0.09,0,0,1,0,.07L132,22.78c-0.07,0-.09,0-0.11.06s-0.09.42-.14,0.62,0,0.09.07,0.1L133,23.79a0.21,0.21,0,0,1,.13,0h0a0.18,0.18,0,0,1-.09,0l-0.83.27c-0.07,0-.09,0,0,0.11l0.34,0.54c0,0.06.06,0.07,0.13,0L133.9,24a0.18,0.18,0,0,1,.27.06l0.43,0.69a0.27,0.27,0,0,1,0,.14c0,0.26,0,.52,0,0.78a0.19,0.19,0,0,1-.22.24L133,26c-0.07,0-.09,0-0.09.09s0,0.43,0,.65c0,0.06,0,.07.08,0.06l0.55-.16a3.12,3.12,0,0,1,.45-0.11l-1,1c-0.05.05-.05,0.08,0,0.13L133.45,28c0.06,0.06.09,0.06,0.14,0l0.89-1a0.11,0.11,0,0,1,0,.08c-0.06.31-.13,0.62-0.19,0.93,0,0.06,0,.08.06,0.07l0.61,0c0.13,0,.13,0,0.12-0.13q0-.74-0.05-1.49a0.18,0.18,0,0,1,.19-0.21l0.83,0a0.22,0.22,0,0,1,.12,0l0.74,0.39a0.18,0.18,0,0,1,.08.26l-0.71,1.35s0,0.08,0,.12l0.6,0.32c0.05,0,.07,0,0.08,0s0.05-.22.08-0.33,0.09-.43.17-0.63a0,0,0,0,1,0,0h0a0,0,0,0,0,0,0h0a0.14,0.14,0,0,1,0,.11c0.11,0.4.21,0.8,0.31,1.2,0,0.07,0,.08.1,0.06l0.62-.19c0.06,0,.08,0,0.06-0.1l-0.47-1.31a0.09,0.09,0,0,1,.07,0l0.7,0.63c0.05,0,.07.05,0.11,0s0.2-.38.3-0.57,0-.09,0-0.11l0,0-1.3-.69a0.19,0.19,0,0,1-.08-0.27l0.39-.73a0.22,0.22,0,0,1,.08-0.09l0.69-.43a0.19,0.19,0,0,1,.31.08l0.8,1.27c0,0.06.06,0.06,0.12,0l0.55-.34c0.07,0,.06-0.06,0-0.11l-0.68-.66a0.09,0.09,0,0,1,0-.07l1.35,0.37c0.06,0,.08,0,0.09-0.06,0-.21.09-0.43,0.15-0.64s0-.09-0.06-0.1l-1.21-.22a0.16,0.16,0,0,1-.12,0h0a0.14,0.14,0,0,1,.08,0l0.85-.28c0.07,0,.09,0,0-0.11s-0.23-.35-0.33-0.53-0.07-.07-0.14,0l-1.29.81a0.18,0.18,0,0,1-.26-0.06l-0.44-.7a0.25,0.25,0,0,1,0-.13c0-.27,0-0.53,0-0.8a0.19,0.19,0,0,1,.22-0.23l1.5-.05c0.07,0,.09,0,0.09-0.09s0-.43,0-0.65c0-.06,0-0.07-0.08-0.06l-0.66.18a1.38,1.38,0,0,1-.34.08l0.09-.09c0.32-.32.65-0.62,1-0.95l-0.59-.55-1,1.11a0.09,0.09,0,0,1,0-.07c0.06-.31.13-0.62,0.19-0.93,0-.07,0-0.09-0.07-0.08l-0.61,0c-0.1,0-.12,0-0.12.13,0,0.5,0,1,.05,1.5a0.18,0.18,0,0,1-.19.2l-0.83,0a0.25,0.25,0,0,1-.14,0l-0.72-.38a0.18,0.18,0,0,1-.08-0.27l0.71-1.34c0-.06,0-0.09,0-0.12l-0.56-.3c-0.05,0-.08,0-0.1,0s-0.08.35-.13,0.53a2.69,2.69,0,0,1-.12.43,0,0,0,0,1,0,0,0,0,0,0,0,0,0h0a0.13,0.13,0,0,1,0-.1c-0.11-.4-0.21-0.8-0.31-1.21,0-.06,0-0.07-0.1-0.05l-0.62.19C134.75,19.69,134.74,19.72,134.76,19.78Zm-1.62,4h0ZM140,24.69a0,0,0,0,1,0,0,0,0,0,0,0,0,0h0Zm-4.4-1.44a2.92,2.92,0,0,1,.25-0.44l0.4,1.14-1.16-.32a2.9,2.9,0,0,1,.42-0.28A0.31,0.31,0,0,0,135.59,23.25Zm-0.34,1.51a0.38,0.38,0,0,0-.06-0.2,3.19,3.19,0,0,1-.24-0.4l1.11,0.2c0.09,0,0,.06,0,0.08l-0.8.79h0C135.26,25.08,135.25,24.92,135.25,24.76Zm1.09,0.87a0.35,0.35,0,0,0-.18,0,4.61,4.61,0,0,1-.49,0l0.73-.84a0.11,0.11,0,0,1,.06,0s0,0,0,.07l0.28,1.07h0A3.55,3.55,0,0,1,136.33,25.64Zm1.19-.38a2.77,2.77,0,0,1-.25.43l-0.4-1.14L138,24.87a2.75,2.75,0,0,1-.42.28A0.3,0.3,0,0,0,137.52,25.26Zm0.34-1.5a0.35,0.35,0,0,0,.06.18,3.57,3.57,0,0,1,.25.41l-1.1-.2s-0.06,0-.06,0a0.1,0.1,0,0,1,0-.05l0.8-.79h0A4.62,4.62,0,0,1,137.87,23.76Zm-1.51-1.1a2.51,2.51,0,0,1,.41.21,0.36,0.36,0,0,0,.19,0h0.49l-0.79.92a0.75,0.75,0,0,1-.06-0.21c-0.08-.32-0.18-0.63-0.24-1a0.8,0.8,0,0,0-.21-0.13A0.8,0.8,0,0,1,136.36,22.66Z"/><path class="cls-22" d="M235,21.35l1.39,2.26a0.19,0.19,0,0,1-.16-0.06l-1.55-.89c-0.11-.07-0.16-0.06-0.19.08-0.09.36-.2,0.71-0.3,1.07s-0.08.28,0.18,0.35l2.72,0.78a0.35,0.35,0,0,1,.25.46l-0.43,1.53a0.45,0.45,0,0,1-.13.21l-1.12,1.08a0.36,0.36,0,0,1-.59,0l-2-2.07c-0.09-.09-0.14-0.1-0.23,0-0.29.29-.59,0.58-0.89,0.86-0.1.1-.09,0.14,0,0.21l1.53,1a0.16,0.16,0,0,1,.11.11L231,28.08c-0.13,0-.18,0-0.18.16,0,0.41,0,.82,0,1.22,0,0.14,0,.17.17,0.17l2.32-.06a0.4,0.4,0,0,1,.26,0h0a0.34,0.34,0,0,1-.16.12l-1.45.85c-0.12.07-.15,0.11,0,0.22q0.44,0.43.85,0.88c0.09,0.1.15,0.1,0.25,0l2.1-2a0.35,0.35,0,0,1,.54,0l1.09,1.13a0.51,0.51,0,0,1,.14.25l0.36,1.45a0.37,0.37,0,0,1-.32.53l-2.79.69c-0.13,0-.17.08-0.13,0.21,0.11,0.4.21,0.8,0.3,1.21,0,0.12.07,0.13,0.17,0.07l1-.51a6,6,0,0,1,.8-0.39l-1.46,2.21c-0.08.11-.07,0.17,0.06,0.24q0.52,0.29,1,.61c0.13,0.08.19,0.07,0.26-.07,0.41-.77.84-1.54,1.25-2.31a0.21,0.21,0,0,1,0,.16c0,0.61,0,1.22,0,1.83,0,0.13,0,.14.15,0.11l1.14-.29c0.23-.06.23-0.06,0.18-0.28l-0.69-2.77a0.35,0.35,0,0,1,.27-0.46l1.54-.39a0.42,0.42,0,0,1,.23,0l1.54,0.44a0.35,0.35,0,0,1,.25.46l-0.8,2.81c0,0.09-.06.17,0.08,0.21l1.25,0.36c0.11,0,.14,0,0.14-0.11s0-.44,0-0.66c0-.42,0-0.84.07-1.25a0,0,0,0,1,0,0h0a0,0,0,0,0,0,0h0a0.26,0.26,0,0,1,.13.18c0.36,0.71.71,1.41,1.06,2.12,0.06,0.12.1,0.13,0.21,0.07l1.08-.6c0.11-.06.14-0.1,0.06-0.22l-1.4-2.27a0.17,0.17,0,0,1,.15.05l1.57,0.9c0.11,0.07.16,0.06,0.19-.08,0.1-.4.22-0.8,0.34-1.19,0-.12,0-0.18-0.11-0.2l-0.1,0-2.72-.78a0.36,0.36,0,0,1-.26-0.48l0.43-1.53a0.42,0.42,0,0,1,.12-0.2l1.12-1.08a0.37,0.37,0,0,1,.61,0l2,2.07c0.09,0.1.14,0.09,0.23,0,0.29-.29.59-0.58,0.89-0.86,0.11-.1.09-0.14,0-0.21l-1.53-1a0.17,0.17,0,0,1-.11-0.11L249.35,30c0.12,0,.14,0,0.14-0.14,0-.42,0-0.84,0-1.26,0-.13,0-0.16-0.16-0.16l-2.35.06a0.3,0.3,0,0,1-.24,0h0a0.27,0.27,0,0,1,.13-0.1l1.48-.87c0.12-.07.15-0.11,0-0.22-0.29-.28-0.57-0.57-0.84-0.86-0.11-.12-0.16-0.11-0.27,0l-2.1,2a0.35,0.35,0,0,1-.51,0l-1.1-1.14a0.48,0.48,0,0,1-.13-0.23l-0.37-1.49A0.36,0.36,0,0,1,243.4,25l2.78-.69c0.13,0,.17-0.08.13-0.21-0.11-.4-0.21-0.8-0.3-1.21,0-.12-0.06-0.13-0.17-0.07l-1.16.61a2.65,2.65,0,0,1-.6.29l0.13-.2c0.47-.72,1-1.42,1.41-2.16l-1.32-.79-1.36,2.47a0.18,0.18,0,0,1,0-.14c0-.61,0-1.22,0-1.83,0-.13,0-0.17-0.16-0.13-0.38.1-.75,0.2-1.13,0.28-0.18,0-.21.1-0.17,0.28,0.24,0.93.47,1.85,0.7,2.78a0.34,0.34,0,0,1-.27.45l-1.54.39a0.48,0.48,0,0,1-.27,0l-1.51-.43a0.35,0.35,0,0,1-.26-0.47c0.27-.93.53-1.87,0.8-2.8,0-.14,0-0.18-0.12-0.21l-1.17-.34c-0.11,0-.17,0-0.17.12,0,0.35,0,.69,0,1a5.16,5.16,0,0,1-.06.85,0,0,0,0,1,0,0,0,0,0,0,0,0,0h0a0.24,0.24,0,0,1-.12-0.17c-0.36-.71-0.72-1.42-1.07-2.14-0.05-.11-0.09-0.13-0.2-0.06q-0.54.31-1.09,0.6C234.94,21.18,234.92,21.23,235,21.35Zm-1.43,8.23h0Zm13.17-1.11a0.06,0.06,0,0,1,0,0,0.06,0.06,0,0,0,0,0h0Zm-8.82-.95a5.59,5.59,0,0,1,.29-0.92l1.2,2-2.31-.13a5.57,5.57,0,0,1,.67-0.69A0.59,0.59,0,0,0,237.92,27.52Zm0,3a0.73,0.73,0,0,0-.2-0.36,6.11,6.11,0,0,1-.6-0.65l2.17-.06c0.18,0,.07.09,0,0.15l-1.18,1.8h0C238,31.08,238,30.79,237.89,30.49Zm2.39,1.2a0.66,0.66,0,0,0-.35,0,8.84,8.84,0,0,1-.92.22L240,30a0.21,0.21,0,0,1,.08-0.11c0.06,0,.07.07,0.1,0.12l0.95,1.9h0A6.81,6.81,0,0,1,240.27,31.7Zm2.08-1.19a5.31,5.31,0,0,1-.29.91l-1.2-2,2.31,0.13a5.26,5.26,0,0,1-.67.69A0.57,0.57,0,0,0,242.35,30.51Zm0-2.95a0.66,0.66,0,0,0,.17.31,6.83,6.83,0,0,1,.63.67l-2.14.06s-0.11,0-.13,0a0.18,0.18,0,0,1,0-.11l1.18-1.8h0A8.85,8.85,0,0,1,242.4,27.57Zm-3.26-1.46a4.8,4.8,0,0,1,.86.22,0.69,0.69,0,0,0,.37,0l0.91-.21-1.11,2a1.43,1.43,0,0,1-.2-0.36c-0.28-.56-0.58-1.11-0.83-1.69a1.53,1.53,0,0,0-.45-0.15A1.53,1.53,0,0,1,239.13,26.11Z"/><path class="cls-21" d="M323.74,48.86l0.89,0.93a0.09,0.09,0,0,1-.08,0l-0.83-.26c-0.06,0-.08,0-0.08.06s0,0.36,0,.54,0,0.14.12,0.15l1.38,0.09a0.17,0.17,0,0,1,.17.19c0,0.26,0,.51,0,0.77a0.22,0.22,0,0,1,0,.12l-0.42.63a0.18,0.18,0,0,1-.28.05l-1.17-.78c-0.05,0-.08,0-0.11,0l-0.34.5c0,0.06,0,.07,0,0.1l0.83,0.3a0.08,0.08,0,0,1,.07,0l-1.28.19c-0.06,0-.08,0-0.07.1s0.08,0.39.12,0.58,0,0.08.1,0.06l1.1-.27a0.19,0.19,0,0,1,.13,0h0a0.17,0.17,0,0,1-.06.07l-0.6.55s-0.06.07,0,.11l0.5,0.33c0.05,0,.08,0,0.12,0l0.79-1.18a0.17,0.17,0,0,1,.26-0.05l0.64,0.42a0.25,0.25,0,0,1,.09.1l0.32,0.66a0.18,0.18,0,0,1-.1.29l-1.26.62c-0.06,0-.07.05,0,0.11l0.27,0.54c0,0.05,0,.06.09,0l0.41-.34a2.92,2.92,0,0,1,.34-0.27l-0.47,1.2c0,0.06,0,.09.05,0.11l0.55,0.19c0.07,0,.1,0,0.12-0.06l0.36-1.23a0.1,0.1,0,0,1,0,.07c0.07,0.29.13,0.58,0.19,0.87,0,0.06,0,.06.08,0l0.51-.25c0.1-.05.1-0.05,0.05-0.15l-0.62-1.25a0.17,0.17,0,0,1,.08-0.25l0.7-.34a0.2,0.2,0,0,1,.11,0l0.78,0.05a0.17,0.17,0,0,1,.17.19l-0.09,1.42s0,0.09.06,0.09l0.63,0c0.06,0,.06,0,0.05-0.06s0-.21-0.06-0.32-0.08-.4-0.1-0.6h0a0.13,0.13,0,0,1,.08.07l0.72,0.9c0,0.05.06,0.05,0.11,0l0.45-.4s0.05-.06,0-0.11l-0.9-.94a0.08,0.08,0,0,1,.08,0l0.84,0.27c0.06,0,.08,0,0.08-0.06s0-.4,0-0.6,0-.09-0.07-0.08h-0.05l-1.37-.09a0.17,0.17,0,0,1-.17-0.2c0-.26,0-0.51,0-0.77a0.21,0.21,0,0,1,0-.11l0.42-.63a0.18,0.18,0,0,1,.29-0.05l1.17,0.78c0.05,0,.08,0,0.11,0l0.34-.5c0-.06,0-0.07,0-0.1l-0.83-.3a0.08,0.08,0,0,1-.07,0l1.29-.2c0.06,0,.06,0,0.05-0.08s-0.08-.4-0.12-0.6,0-.07-0.09-0.06L330.2,51a0.15,0.15,0,0,1-.12,0h0a0.13,0.13,0,0,1,.05-0.06l0.62-.57s0.06-.07,0-0.11L330.25,50c-0.06,0-.09,0-0.13,0l-0.79,1.18a0.17,0.17,0,0,1-.25,0l-0.64-.43a0.23,0.23,0,0,1-.09-0.1L328,50a0.17,0.17,0,0,1,.1-0.28l1.25-.62c0.06,0,.07-0.05,0-0.11l-0.27-.54c0-.05,0-0.06-0.09,0l-0.49.41a1.29,1.29,0,0,1-.26.2l0-.11c0.15-.39.31-0.78,0.45-1.17l-0.71-.24-0.39,1.32a0.09,0.09,0,0,1,0-.06l-0.19-.87c0-.06,0-0.08-0.09,0l-0.51.25c-0.08,0-.09.07-0.05,0.15l0.62,1.25a0.17,0.17,0,0,1-.08.24l-0.69.34a0.23,0.23,0,0,1-.13,0l-0.76-.05a0.17,0.17,0,0,1-.17-0.2c0-.47.06-0.95,0.09-1.42,0-.07,0-0.09-0.08-0.09l-0.59,0c-0.06,0-.09,0-0.07.07s0.06,0.33.09,0.5a2.52,2.52,0,0,1,.06.41h0a0.12,0.12,0,0,1-.08-0.07l-0.73-.91s-0.06-.05-0.1,0l-0.46.4C323.7,48.79,323.7,48.81,323.74,48.86Zm0.17,4.07h0ZM330.07,51h0Zm-4.3.46a2.73,2.73,0,0,1,0-.47l0.78,0.82-1.11.18a2.71,2.71,0,0,1,.25-0.4A0.29,0.29,0,0,0,325.78,51.5Zm0.29,1.42a0.36,0.36,0,0,0-.13-0.15,3,3,0,0,1-.35-0.25l1-.25c0.08,0,0,0,0,.07l-0.37,1h0Zm1.26,0.33a0.32,0.32,0,0,0-.17,0,4.31,4.31,0,0,1-.41.2l0.3-1a0.1,0.1,0,0,1,0-.06s0,0,.06,0l0.65,0.8h0A3.32,3.32,0,0,1,327.33,53.24Zm0.87-.78a2.59,2.59,0,0,1,0,.47l-0.78-.82,1.11-.18a2.57,2.57,0,0,1-.25.4A0.28,0.28,0,0,0,328.2,52.46Zm-0.28-1.41a0.32,0.32,0,0,0,.11.13,3.33,3.33,0,0,1,.37.26l-1,.25s0,0-.07,0a0.09,0.09,0,0,1,0-.06l0.37-1h0A4.31,4.31,0,0,1,327.91,51.06Zm-1.71-.36a2.34,2.34,0,0,1,.43,0,0.34,0.34,0,0,0,.18,0l0.41-.2-0.32,1.08a0.7,0.7,0,0,1-.13-0.15c-0.19-.24-0.39-0.47-0.57-0.72a0.75,0.75,0,0,0-.23,0A0.75,0.75,0,0,1,326.21,50.7Z"/><path class="cls-23" d="M413.71,65.16c0.08,0.6.16,1.19,0.23,1.79a0.13,0.13,0,0,1-.08-0.08l-0.72-1c-0.05-.07-0.08-0.08-0.14,0l-0.49.58c-0.13.15-.13,0.15,0,0.27L414,68a0.24,0.24,0,0,1,0,.36l-0.7.83a0.31,0.31,0,0,1-.14.1l-1,.36a0.25,0.25,0,0,1-.36-0.18l-0.66-1.85c0-.08-0.06-0.1-0.14-0.07l-0.79.29c-0.09,0-.09.06,0,0.13l0.68,1a0.11,0.11,0,0,1,0,.1l-1.59-.84c-0.08,0-.12,0-0.16.05-0.11.25-.23,0.51-0.35,0.75,0,0.09,0,.12.06,0.15l1.46,0.61a0.27,0.27,0,0,1,.16.09h0a0.23,0.23,0,0,1-.13,0l-1.14.12c-0.09,0-.12,0-0.08.12q0.15,0.39.28,0.78c0,0.09.06,0.1,0.15,0.07l1.87-.67a0.24,0.24,0,0,1,.33.16l0.36,1a0.35,0.35,0,0,1,0,.19l-0.18,1a0.25,0.25,0,0,1-.35.24l-1.92-.35c-0.09,0-.12,0-0.14.09,0,0.28-.09.56-0.15,0.83,0,0.08,0,.1.08,0.09l0.74,0a4.07,4.07,0,0,1,.6,0l-1.52,1c-0.08,0-.09.09,0,0.16s0.31,0.44.46,0.66,0.1,0.1.18,0l1.42-1.08a0.15,0.15,0,0,1,0,.11c-0.17.38-.33,0.76-0.5,1.14,0,0.08,0,.1.06,0.11l0.78,0.14c0.16,0,.16,0,0.19-0.13l0.34-1.91a0.23,0.23,0,0,1,.3-0.21l1.07,0.19a0.28,0.28,0,0,1,.15.06l0.83,0.71a0.24,0.24,0,0,1,0,.36l-1.28,1.52c0,0.05-.09.09,0,0.15L414,77.07c0.06,0.05.08,0,.11,0l0.2-.4c0.13-.25.24-0.52,0.39-0.76a0,0,0,0,1,0,0h0a0,0,0,0,0,0,0h0a0.18,0.18,0,0,1,0,.15c0,0.54,0,1.07.07,1.61,0,0.09,0,.11.11,0.1l0.84-.07c0.08,0,.11,0,0.1-0.12-0.08-.6-0.16-1.2-0.23-1.8a0.11,0.11,0,0,1,.08.07l0.72,1c0.05,0.07.08,0.08,0.14,0s0.36-.43.55-0.64,0.06-.11,0-0.15L417,76l-1.47-1.24a0.24,0.24,0,0,1,0-.37l0.7-.83a0.29,0.29,0,0,1,.13-0.09l1-.36a0.25,0.25,0,0,1,.37.18c0.22,0.62.45,1.23,0.66,1.85,0,0.09.06,0.1,0.14,0.07l0.79-.29c0.09,0,.09-0.06,0-0.14l-0.68-1a0.11,0.11,0,0,1,0-.1l1.61,0.85c0.07,0,.1,0,0.13,0,0.12-.26.24-0.52,0.36-0.78,0-.08,0-0.11-0.05-0.14l-1.48-.62a0.2,0.2,0,0,1-.14-0.08h0a0.18,0.18,0,0,1,.11,0l1.16-.12c0.09,0,.12,0,0.09-0.12-0.1-.25-0.19-0.51-0.28-0.77,0-.1-0.07-0.11-0.17-0.08l-1.87.67a0.24,0.24,0,0,1-.32-0.15l-0.37-1a0.33,0.33,0,0,1,0-.18l0.19-1a0.24,0.24,0,0,1,.34-0.23l1.92,0.35c0.09,0,.12,0,0.14-0.1,0-.28.1-0.56,0.15-0.83,0-.08,0-0.1-0.08-0.09l-0.89.05a1.8,1.8,0,0,1-.46,0l0.14-.08c0.49-.32,1-0.62,1.48-0.95l-0.6-.86-1.53,1.15a0.12,0.12,0,0,1,0-.09l0.5-1.14c0-.08,0-0.11-0.07-0.13-0.26,0-.52-0.08-0.78-0.14s-0.16,0-.18.13c-0.11.64-.23,1.28-0.34,1.92a0.23,0.23,0,0,1-.29.21L416,69a0.33,0.33,0,0,1-.16-0.08L415,68.25a0.24,0.24,0,0,1,0-.37l1.28-1.52c0.06-.07.06-0.11,0-0.17l-0.63-.54c-0.06-.05-0.1-0.07-0.14,0s-0.2.43-.31,0.63a3.52,3.52,0,0,1-.27.51,0,0,0,0,1,0,0,0,0,0,0,0,0,0h0a0.16,0.16,0,0,1,0-.14c0-.54,0-1.09-0.07-1.63,0-.08,0-0.1-0.11-0.1l-0.84.07C413.72,65,413.7,65.07,413.71,65.16Zm-3.18,4.71h0Zm8.49,3a0,0,0,0,1,0,0,0,0,0,0,0,0,0h0Zm-5.21-3.05a3.81,3.81,0,0,1,.44-0.49l0.19,1.56-1.4-.73a3.79,3.79,0,0,1,.61-0.24A0.4,0.4,0,0,0,413.8,69.81Zm-0.85,1.84a0.5,0.5,0,0,0,0-.28,4.16,4.16,0,0,1-.19-0.57l1.36,0.57c0.11,0,0,.08,0,0.1l-1.23.79h0C412.88,72.06,412.91,71.85,412.95,71.65Zm1.15,1.41a0.45,0.45,0,0,0-.22-0.1,6,6,0,0,1-.63-0.12l1.16-.87a0.15,0.15,0,0,1,.08,0s0,0.06,0,.1q0,0.72.06,1.44h0A4.64,4.64,0,0,1,414.1,73.06Zm1.62-.16a3.61,3.61,0,0,1-.44.49l-0.19-1.56,1.39,0.73a3.58,3.58,0,0,1-.61.24A0.39,0.39,0,0,0,415.72,72.91Zm0.85-1.82a0.45,0.45,0,0,0,0,.24,4.65,4.65,0,0,1,.2.59l-1.34-.56s-0.08,0-.07-0.06a0.12,0.12,0,0,1,.06-0.06l1.24-.79h0A6,6,0,0,1,416.57,71.09Zm-1.62-1.82a3.27,3.27,0,0,1,.47.38,0.47,0.47,0,0,0,.23.11l0.62,0.12-1.26,1a1,1,0,0,1,0-.28c0-.43,0-0.85,0-1.28a1,1,0,0,0-.24-0.22A1,1,0,0,1,414.95,69.27Z"/><path class="cls-21" d="M390.71,142.82L390,144.47a0.13,0.13,0,0,1,0-.11c0-.4-0.08-0.81-0.11-1.21,0-.09,0-0.11-0.12-0.08l-0.71.25c-0.18.06-.18,0.06-0.12,0.24l0.63,1.82a0.24,0.24,0,0,1-.16.32l-1,.36a0.31,0.31,0,0,1-.17,0l-1-.2a0.25,0.25,0,0,1-.22-0.34c0.12-.64.24-1.29,0.37-1.93,0-.08,0-0.12-0.09-0.13l-0.83-.16c-0.09,0-.11,0-0.11.09,0,0.41,0,.82.06,1.23a0.11,0.11,0,0,1,0,.11l-0.94-1.54c0-.08-0.08-0.09-0.16,0l-0.69.47c-0.08.05-.08,0.08,0,0.16l0.94,1.27a0.27,0.27,0,0,1,.09.16h0a0.23,0.23,0,0,1-.13,0l-1-.48c-0.08,0-.12,0-0.14.06q-0.07.41-.15,0.82c0,0.09,0,.12.09,0.14l2,0.37a0.24,0.24,0,0,1,.21.3c-0.07.35-.14,0.7-0.2,1a0.35,0.35,0,0,1-.08.18l-0.67.77a0.25,0.25,0,0,1-.42,0l-1.48-1.28c-0.07-.06-0.11-0.06-0.17,0l-0.55.64c-0.06.06,0,.09,0,0.12l0.66,0.34a4.07,4.07,0,0,1,.53.29l-1.8.05c-0.09,0-.12,0-0.11.12,0,0.27,0,.54.06,0.81,0,0.1,0,.13.14,0.12l1.78-.21a0.15,0.15,0,0,1-.08.08l-1,.72c-0.07,0-.07.07,0,0.12l0.6,0.52c0.12,0.11.12,0.11,0.23,0l1.27-1.47a0.23,0.23,0,0,1,.37,0l0.82,0.71a0.28,0.28,0,0,1,.09.13l0.36,1a0.24,0.24,0,0,1-.16.32l-1.88.65c-0.06,0-.12,0-0.09.13q0.15,0.41.29,0.83c0,0.07.05,0.07,0.11,0l0.38-.24c0.24-.15.47-0.32,0.73-0.45v0h0v0h0a0.18,0.18,0,0,1-.05.14l-0.76,1.42c0,0.08,0,.11,0,0.14l0.76,0.37c0.07,0,.11,0,0.15,0l0.71-1.66a0.11,0.11,0,0,1,0,.1c0,0.41.08,0.82,0.11,1.23,0,0.09,0,.11.12,0.08L388,154c0.08,0,.11-0.06.07-0.14a0.43,0.43,0,0,1,0-.07L387.39,152a0.24,0.24,0,0,1,.16-0.33l1-.36a0.29,0.29,0,0,1,.16,0l1,0.2a0.25,0.25,0,0,1,.23.35c-0.12.64-.24,1.28-0.37,1.93,0,0.09,0,.11.09,0.13l0.83,0.16c0.1,0,.11,0,0.1-0.09,0-.41,0-0.82-0.06-1.23a0.11,0.11,0,0,1,0-.11l1,1.55c0,0.07.07,0.07,0.13,0l0.71-.48c0.07,0,.08-0.08,0-0.15l-1-1.29a0.2,0.2,0,0,1-.08-0.15h0a0.19,0.19,0,0,1,.1,0l1.06,0.49c0.08,0,.12,0,0.14-0.06,0-.27.09-0.54,0.15-0.8,0-.1,0-0.13-0.11-0.15l-2-.37a0.24,0.24,0,0,1-.2-0.29c0.07-.35.14-0.71,0.2-1.06a0.33,0.33,0,0,1,.08-0.16l0.68-.79a0.24,0.24,0,0,1,.41,0l1.48,1.28c0.07,0.06.11,0.06,0.17,0l0.55-.64c0.06-.06,0-0.09,0-0.12l-0.8-.41a1.8,1.8,0,0,1-.4-0.22h0.16c0.58,0,1.17,0,1.75-.06l-0.08-1-1.91.21a0.12,0.12,0,0,1,.07-0.07l1-.72c0.07-.05.08-0.08,0-0.14s-0.41-.34-0.6-0.52-0.14-.08-0.22,0L391.86,148a0.23,0.23,0,0,1-.36,0l-0.82-.71a0.33,0.33,0,0,1-.1-0.15l-0.35-1a0.24,0.24,0,0,1,.16-0.33l1.88-.65c0.09,0,.1-0.06.07-0.15-0.1-.26-0.18-0.52-0.27-0.79,0-.08,0-0.11-0.13-0.05l-0.59.39a3.52,3.52,0,0,1-.5.3v0h0a0.16,0.16,0,0,1,0-.13l0.77-1.43c0-.07,0-0.1,0-0.14l-0.76-.37C390.78,142.72,390.75,142.73,390.71,142.82Zm-5.14,2.43h0Zm5.78,6.9v0h0Zm-2.93-5.28a3.81,3.81,0,0,1,.62-0.2l-0.63,1.44-0.83-1.34a3.79,3.79,0,0,1,.64.1A0.4,0.4,0,0,0,388.42,146.86ZM386.75,148a0.5,0.5,0,0,0,.12-0.25,4.16,4.16,0,0,1,.13-0.59l0.88,1.18c0.07,0.1,0,.08-0.07.08l-1.46.05h0Zm0.27,1.8a0.45,0.45,0,0,0-.13-0.2,6,6,0,0,1-.48-0.43l1.45-.16a0.15,0.15,0,0,1,.09,0s0,0.07,0,.1l-0.68,1.27h0A4.64,4.64,0,0,1,387,149.81Zm1.48,0.69a3.61,3.61,0,0,1-.62.2l0.63-1.44,0.83,1.34a3.58,3.58,0,0,1-.64-0.1A0.39,0.39,0,0,0,388.5,150.5Zm1.66-1.13a0.45,0.45,0,0,0-.1.22,4.65,4.65,0,0,1-.13.61L389.05,149s-0.06-.05,0-0.08a0.12,0.12,0,0,1,.08,0l1.47-.05h0A6,6,0,0,1,390.15,149.37ZM389.68,147a3.27,3.27,0,0,1,.21.57,0.47,0.47,0,0,0,.14.21l0.47,0.42-1.57.18a1,1,0,0,1,.12-0.25c0.2-.37.39-0.76,0.61-1.12a1,1,0,0,0-.09-0.31A1,1,0,0,1,389.68,147Z"/><path class="cls-24" d="M27.52,21.85l-1.25.91a0.11,0.11,0,0,1,0-.1l0.45-.95c0-.07,0-0.09-0.05-0.11l-0.64-.13c-0.16,0-.16,0-0.2.12l-0.33,1.62a0.2,0.2,0,0,1-.26.17l-0.91-.18a0.26,0.26,0,0,1-.13-0.07l-0.68-.6a0.21,0.21,0,0,1,0-.35l1.12-1.26c0-.06.05-0.09,0-0.14l-0.54-.48c-0.06-.06-0.08,0-0.12,0l-0.49.94a0.1,0.1,0,0,1-.06.07c0-.52,0-1,0-1.55,0-.08,0-0.1-0.1-0.1l-0.71,0c-0.08,0-.1,0-0.09.11,0.05,0.45.1,0.9,0.14,1.35a0.23,0.23,0,0,1,0,.15h0a0.2,0.2,0,0,1-.08-0.09L22,20.48c0-.07-0.07-0.08-0.13,0L21.41,21c-0.05.06-.05,0.09,0,0.14l1.28,1.13a0.21,0.21,0,0,1,0,.31l-0.61.69a0.3,0.3,0,0,1-.14.09l-0.83.28a0.22,0.22,0,0,1-.32-0.16l-0.53-1.59c0-.07-0.05-0.09-0.13-0.07l-0.69.23c-0.07,0-.07,0,0,0.1l0.34,0.54a3.5,3.5,0,0,1,.27.45l-1.35-.75c-0.07,0-.1,0-0.14,0s-0.2.42-.31,0.62,0,0.11.05,0.15l1.4,0.62a0.12,0.12,0,0,1-.09,0L18.54,24c-0.07,0-.08,0-0.06.09l0.22,0.65c0,0.13,0,.13.17,0.09l1.58-.53a0.2,0.2,0,0,1,.28.14L21,25.27a0.24,0.24,0,0,1,0,.13c-0.06.31-.12,0.61-0.19,0.92a0.2,0.2,0,0,1-.26.17l-1.67-.34c-0.06,0-.1,0-0.12.05q-0.07.37-.15,0.74c0,0.07,0,.08.07,0.07l0.38,0c0.24,0,.49,0,0.73,0h0a0.16,0.16,0,0,1-.1.08l-1.19.72c-0.07,0-.07.07,0,0.13l0.4,0.6c0,0.06.07,0.07,0.13,0l1.26-.92a0.1,0.1,0,0,1,0,.09l-0.45,1c0,0.07,0,.09.05,0.11l0.71,0.14c0.07,0,.11,0,0.11-0.07a0.37,0.37,0,0,1,0-.06l0.33-1.62A0.21,0.21,0,0,1,21.32,27l0.91,0.18a0.25,0.25,0,0,1,.12.06L23,27.85a0.22,0.22,0,0,1,0,.35l-1.12,1.26c-0.05.06,0,.09,0,0.13l0.54,0.48c0.06,0.06.08,0,.12,0l0.49-.94A0.1,0.1,0,0,1,23.14,29c0,0.52,0,1,0,1.57,0,0.07,0,.08.09,0.08l0.73,0c0.08,0,.09,0,0.08-0.1-0.05-.46-0.1-0.91-0.14-1.37a0.18,0.18,0,0,1,0-.14h0a0.16,0.16,0,0,1,.06.07l0.57,0.82c0,0.06.07,0.08,0.13,0s0.3-.36.46-0.53,0.06-.1,0-0.16l-1.28-1.13a0.2,0.2,0,0,1,0-.3l0.61-.69A0.28,0.28,0,0,1,24.6,27l0.85-.28a0.21,0.21,0,0,1,.31.16l0.53,1.59c0,0.07.05,0.09,0.13,0.07l0.69-.23c0.07,0,.07,0,0-0.1l-0.41-.65a1.55,1.55,0,0,1-.2-0.34l0.12,0.07c0.44,0.24.87,0.5,1.32,0.72l0.4-.8-1.5-.68a0.11,0.11,0,0,1,.08,0L28,26.45c0.08,0,.1,0,0.07-0.1s-0.15-.43-0.22-0.65-0.07-.12-0.17-0.08l-1.59.54A0.2,0.2,0,0,1,25.85,26l-0.3-.88a0.28,0.28,0,0,1,0-.16c0.06-.3.12-0.6,0.18-0.9A0.2,0.2,0,0,1,26,23.91l1.67,0.34c0.08,0,.11,0,0.12-0.08,0-.23.09-0.47,0.14-0.7,0-.07,0-0.1-0.08-0.1l-0.61,0a3,3,0,0,1-.5,0h0a0.14,0.14,0,0,1,.09-0.08L28,22.6c0.06,0,.07-0.06,0-0.12l-0.4-.61C27.62,21.81,27.58,21.8,27.52,21.85Zm-4.86-.45h0ZM23.92,29h0Zm0.15-5.18a3.27,3.27,0,0,1,.55.13l-1.1.79,0-1.35a3.25,3.25,0,0,1,.43.36A0.34,0.34,0,0,0,24.06,23.84ZM22.33,24a0.43,0.43,0,0,0,.2-0.13,3.57,3.57,0,0,1,.35-0.38c0,0.42.09,0.84,0.14,1.26,0,0.1-.05,0-0.08,0l-1.1-.6h0ZM21.74,25.4a0.39,0.39,0,0,0,0-.21,5.17,5.17,0,0,1-.17-0.52l1.14,0.51a0.12,0.12,0,0,1,.07,0s0,0-.06.06l-1.06.64h0A4,4,0,0,1,21.74,25.4Zm0.79,1.16A3.1,3.1,0,0,1,22,26.43l1.09-.79,0,1.35a3.08,3.08,0,0,1-.43-0.36A0.33,0.33,0,0,0,22.52,26.56Zm1.72-.11a0.39,0.39,0,0,0-.17.12,4,4,0,0,1-.36.4l-0.13-1.24s0-.06,0-0.08a0.11,0.11,0,0,1,.07,0l1.11,0.6h0A5.17,5.17,0,0,1,24.24,26.45Zm0.7-2a2.81,2.81,0,0,1-.09.51,0.4,0.4,0,0,0,0,.22c0.06,0.17.11,0.34,0.17,0.52l-1.23-.55A0.84,0.84,0,0,1,24,25c0.31-.19.62-0.39,0.94-0.56A0.9,0.9,0,0,0,25,24.21,0.9,0.9,0,0,1,24.94,24.48Z"/><path class="cls-21" d="M35.94,95.24l0.94,1.54a0.13,0.13,0,0,1-.11,0l-1.06-.61c-0.08,0-.11,0-0.13.05s-0.14.49-.21,0.73-0.05.19,0.12,0.24l1.85,0.53a0.24,0.24,0,0,1,.17.31l-0.3,1a0.31,0.31,0,0,1-.09.15l-0.76.73a0.25,0.25,0,0,1-.4,0l-1.36-1.41c-0.06-.06-0.09-0.07-0.16,0l-0.61.59c-0.07.07-.06,0.09,0,0.14l1,0.66a0.11,0.11,0,0,1,.08.07l-1.8-.11c-0.09,0-.12,0-0.12.11,0,0.28,0,.56,0,0.83,0,0.1,0,.12.11,0.11l1.58,0a0.27,0.27,0,0,1,.18,0h0a0.23,0.23,0,0,1-.11.08l-1,.58c-0.08,0-.1.07,0,0.15l0.58,0.6c0.06,0.07.1,0.07,0.17,0L36,100.89a0.24,0.24,0,0,1,.37,0l0.74,0.77a0.35,0.35,0,0,1,.1.17l0.25,1a0.25,0.25,0,0,1-.22.36l-1.9.47c-0.09,0-.11.05-0.09,0.14,0.07,0.27.14,0.55,0.21,0.82,0,0.08,0,.09.12,0.05l0.66-.35a4.07,4.07,0,0,1,.54-0.27l-1,1.5c-0.05.08,0,.11,0,0.16l0.69,0.42c0.09,0.06.13,0,.18,0l0.85-1.57a0.15,0.15,0,0,1,0,.11c0,0.41,0,.83,0,1.24,0,0.09,0,.1.1,0.08l0.77-.19c0.16,0,.16,0,0.12-0.19l-0.47-1.88a0.23,0.23,0,0,1,.19-0.32l1.05-.26a0.28,0.28,0,0,1,.16,0l1.05,0.3a0.24,0.24,0,0,1,.17.31l-0.55,1.91c0,0.06,0,.12.05,0.14L41,106c0.07,0,.09,0,0.09-0.07s0-.3,0-0.45,0-.57,0-0.85v0h0v0h0a0.18,0.18,0,0,1,.09.13L42,106.2c0,0.08.07,0.09,0.15,0l0.74-.41c0.07,0,.09-0.07,0-0.15L42,104.15a0.11,0.11,0,0,1,.1,0l1.07,0.61c0.08,0,.11,0,0.13-0.05,0.07-.27.15-0.54,0.23-0.81,0-.08,0-0.12-0.08-0.13l-0.07,0-1.85-.53a0.24,0.24,0,0,1-.17-0.32l0.3-1a0.29,0.29,0,0,1,.08-0.14l0.76-.73a0.25,0.25,0,0,1,.41,0l1.36,1.41c0.06,0.07.09,0.06,0.16,0l0.61-.59c0.07-.07.06-0.09,0-0.14l-1-.66a0.11,0.11,0,0,1-.08-0.07l1.82,0.11c0.08,0,.1,0,0.1-0.1,0-.29,0-0.57,0-0.86,0-.09,0-0.11-0.11-0.11l-1.6,0a0.2,0.2,0,0,1-.16,0h0A0.19,0.19,0,0,1,44,100l1-.59c0.08,0,.1-0.07,0-0.15s-0.39-.39-0.57-0.59-0.11-.07-0.19,0L42.88,100a0.24,0.24,0,0,1-.35,0l-0.75-.78a0.33,0.33,0,0,1-.09-0.16l-0.25-1a0.24,0.24,0,0,1,.21-0.35l1.9-.47c0.09,0,.11-0.05.09-0.14-0.07-.27-0.14-0.55-0.21-0.82,0-.08,0-0.09-0.11,0l-0.79.41a1.8,1.8,0,0,1-.41.2l0.09-.13c0.32-.49.66-1,1-1.47l-0.9-.54-0.92,1.68a0.12,0.12,0,0,1,0-.09c0-.41,0-0.83,0-1.24,0-.09,0-0.11-0.11-0.09-0.26.07-.51,0.14-0.77,0.19s-0.15.07-.11,0.19c0.16,0.63.32,1.26,0.48,1.89a0.23,0.23,0,0,1-.18.31l-1.05.26a0.33,0.33,0,0,1-.18,0l-1-.3a0.24,0.24,0,0,1-.18-0.32c0.18-.64.36-1.27,0.55-1.91,0-.09,0-0.12-0.08-0.15l-0.8-.23c-0.08,0-.12,0-0.12.08s0,0.47,0,.71a3.52,3.52,0,0,1,0,.58,0,0,0,0,1,0,0,0,0,0,0,0,0,0h0a0.16,0.16,0,0,1-.08-0.12l-0.73-1.46c0-.07-0.06-0.09-0.14,0L36,95.09C35.9,95.13,35.89,95.17,35.94,95.24Zm-1,5.6h0Zm9-.75a0,0,0,0,1,0,0,0,0,0,0,0,0,0h0Zm-6-.65a3.81,3.81,0,0,1,.2-0.62l0.82,1.35-1.57-.09a3.79,3.79,0,0,1,.46-0.47A0.4,0.4,0,0,0,37.93,99.44Zm0,2a0.5,0.5,0,0,0-.13-0.24,4.16,4.16,0,0,1-.41-0.44l1.48,0c0.12,0,.05.06,0,0.1l-0.8,1.23h0C38,101.87,38,101.67,37.9,101.47Zm1.63,0.82a0.45,0.45,0,0,0-.24,0,6,6,0,0,1-.62.15l0.7-1.27a0.15,0.15,0,0,1,.06-0.07s0,0,.07.08l0.64,1.29h0A4.64,4.64,0,0,1,39.53,102.29Zm1.42-.81a3.61,3.61,0,0,1-.2.62l-0.82-1.34,1.57,0.09a3.58,3.58,0,0,1-.46.47A0.39,0.39,0,0,0,40.95,101.48Zm0-2a0.45,0.45,0,0,0,.12.21,4.65,4.65,0,0,1,.43.46l-1.45,0s-0.07,0-.09,0a0.12,0.12,0,0,1,0-.08l0.8-1.23h0A6,6,0,0,1,41,99.48Zm-2.22-1a3.27,3.27,0,0,1,.59.15,0.47,0.47,0,0,0,.25,0l0.62-.15-0.75,1.38a1,1,0,0,1-.14-0.25c-0.19-.38-0.39-0.76-0.56-1.15a1,1,0,0,0-.31-0.1A1,1,0,0,1,38.75,98.48Z"/><path class="cls-21" d="M388.48,24.23l0.1,0.8a0.06,0.06,0,0,1,0,0l-0.32-.44s0,0-.06,0l-0.22.26c-0.06.07-.06,0.07,0,0.12l0.65,0.55a0.11,0.11,0,0,1,0,.16l-0.31.37-0.06,0-0.44.16a0.11,0.11,0,0,1-.16-0.08l-0.3-.82s0,0-.06,0l-0.35.13s0,0,0,.06l0.3,0.46a0,0,0,0,1,0,0l-0.71-.37s-0.05,0-.07,0l-0.16.34s0,0.05,0,.07L387,26.29a0.12,0.12,0,0,1,.07,0H387l-0.51.05s-0.05,0,0,.06l0.13,0.35s0,0,.07,0l0.83-.3a0.11,0.11,0,0,1,.15.07L387.78,27a0.16,0.16,0,0,1,0,.09l-0.08.45a0.11,0.11,0,0,1-.15.11l-0.86-.16s-0.06,0-.06,0,0,0.25-.07.37,0,0,0,0l0.33,0a1.81,1.81,0,0,1,.27,0l-0.68.43s0,0,0,.07l0.21,0.3s0,0,.08,0l0.63-.48a0.06,0.06,0,0,1,0,0l-0.22.51s0,0,0,0L387.57,29c0.07,0,.07,0,0.08-0.06l0.15-.85a0.1,0.1,0,0,1,.13-0.09L388.42,28l0.06,0,0.37,0.31a0.11,0.11,0,0,1,0,.16l-0.57.68s0,0,0,.07l0.3,0.25s0,0,.05,0l0.09-.18c0.06-.11.11-0.23,0.18-0.34a0,0,0,0,1,0,0h0a0,0,0,0,0,0,0h0a0.08,0.08,0,0,1,0,.07c0,0.24,0,.48,0,0.72,0,0,0,0,.05,0l0.37,0s0.05,0,0-.05c0-.27-0.07-0.53-0.1-0.8a0.05,0.05,0,0,1,0,0l0.32,0.44s0,0,.06,0l0.24-.29s0,0,0-.07l0,0-0.66-.55a0.11,0.11,0,0,1,0-.16l0.31-.37,0.06,0,0.44-.16a0.11,0.11,0,0,1,.17.08l0.3,0.82s0,0,.06,0l0.35-.13s0,0,0-.06l-0.3-.46a0.05,0.05,0,0,1,0,0l0.72,0.38s0,0,.06,0L391.6,28s0,0,0-.06l-0.66-.28a0.09,0.09,0,0,1-.06,0h0l0.52-.05s0.06,0,0-.06-0.09-.23-0.12-0.34,0-.05-0.08,0l-0.83.3a0.1,0.1,0,0,1-.14-0.07l-0.16-.45a0.15,0.15,0,0,1,0-.08l0.08-.46a0.11,0.11,0,0,1,.15-0.1l0.86,0.16s0.06,0,.06,0,0-.25.07-0.37,0,0,0,0l-0.4,0a0.8,0.8,0,0,1-.2,0l0.06,0c0.22-.14.44-0.27,0.66-0.42l-0.27-.38-0.68.51a0.05,0.05,0,0,1,0,0l0.22-.51s0,0,0-.06L390.32,25c-0.06,0-.07,0-0.08.06,0,0.29-.1.57-0.15,0.86A0.1,0.1,0,0,1,390,26l-0.47-.09-0.07,0L389,25.61a0.11,0.11,0,0,1,0-.16l0.57-.68s0,0,0-.07l-0.28-.24s0,0-.06,0l-0.14.28A1.57,1.57,0,0,1,389,25a0,0,0,0,1,0,0,0,0,0,0,0,0,0h0a0.07,0.07,0,0,1,0-.06c0-.24,0-0.48,0-0.73,0,0,0,0,0,0l-0.38,0S388.48,24.19,388.48,24.23Zm-1.42,2.1h0Zm3.78,1.33h0Zm-2.32-1.36a1.7,1.7,0,0,1,.19-0.22l0.09,0.7-0.62-.32a1.69,1.69,0,0,1,.27-0.11Zm-0.38.82a0.22,0.22,0,0,0,0-.12,1.85,1.85,0,0,1-.09-0.25L388.65,27s0,0,0,0l-0.55.35h0C388.11,27.3,388.12,27.21,388.14,27.12Zm0.51,0.63a0.2,0.2,0,0,0-.1,0l-0.28-.05,0.52-.39,0,0s0,0,0,0l0,0.64h0A2.07,2.07,0,0,1,388.65,27.75Zm0.72-.07a1.61,1.61,0,0,1-.19.22l-0.09-.7,0.62,0.32a1.6,1.6,0,0,1-.27.11Zm0.38-.81a0.2,0.2,0,0,0,0,.11,2.07,2.07,0,0,1,.09.26l-0.6-.25s0,0,0,0l0,0,0.55-.35h0A2.68,2.68,0,0,1,389.75,26.87ZM389,26.06a1.46,1.46,0,0,1,.21.17,0.21,0.21,0,0,0,.1,0l0.28,0.05-0.56.42a0.43,0.43,0,0,1,0-.13c0-.19,0-0.38,0-0.57a0.47,0.47,0,0,0-.11-0.1A0.47,0.47,0,0,1,389,26.06Z"/><path class="cls-24" d="M450.5,124.27c0.57,1,1.13,2,1.69,3a0.24,0.24,0,0,1-.21-0.08l-2-1.22c-0.14-.09-0.2-0.09-0.25.09-0.14.46-.29,0.91-0.44,1.37s-0.12.35,0.22,0.46L453,129a0.45,0.45,0,0,1,.31.61c-0.21.65-.42,1.3-0.63,2a0.58,0.58,0,0,1-.18.27L451,133.16a0.47,0.47,0,0,1-.76-0.05l-2.49-2.77c-0.11-.12-0.17-0.14-0.3,0-0.39.37-.79,0.73-1.19,1.07-0.14.12-.12,0.17,0,0.27l1.94,1.31a0.21,0.21,0,0,1,.14.14l-3.41-.33c-0.17,0-.23,0-0.24.2,0,0.53,0,1.05-.08,1.58,0,0.18,0,.22.21,0.22l3,0a0.51,0.51,0,0,1,.34,0h0a0.44,0.44,0,0,1-.21.15l-1.91,1c-0.15.08-.2,0.13-0.06,0.28q0.54,0.57,1.06,1.17c0.12,0.13.18,0.14,0.32,0l2.8-2.53a0.46,0.46,0,0,1,.7,0l1.36,1.51a0.66,0.66,0,0,1,.17.33c0.13,0.63.27,1.26,0.4,1.9a0.48,0.48,0,0,1-.44.67l-3.63.77c-0.17,0-.22.09-0.18,0.27,0.12,0.52.23,1,.34,1.57,0,0.16.08,0.17,0.22,0.1l1.28-.62a7.74,7.74,0,0,1,1-.47l-2,2.79c-0.1.14-.09,0.21,0.06,0.31q0.65,0.4,1.29.84c0.16,0.11.24,0.1,0.34-.07,0.57-1,1.15-2,1.73-2.93a0.28,0.28,0,0,1,0,.21c0,0.79,0,1.58-.07,2.36,0,0.16,0,.18.18,0.15l1.48-.32c0.3-.06.3-0.06,0.24-0.36L454,140.41a0.45,0.45,0,0,1,.37-0.59l2-.43a0.54,0.54,0,0,1,.3,0l2,0.64a0.45,0.45,0,0,1,.3.61l-1.16,3.59c0,0.12-.09.22,0.09,0.27l1.59,0.52c0.14,0,.18,0,0.18-0.13s0-.57.06-0.85c0.05-.54,0-1.08.15-1.62a0,0,0,0,1,0,0h0a0,0,0,0,0,0,0h0a0.34,0.34,0,0,1,.16.24c0.43,0.93.86,1.86,1.28,2.79,0.07,0.15.13,0.17,0.27,0.09,0.47-.25.95-0.49,1.43-0.73,0.14-.07.18-0.12,0.09-0.28-0.57-1-1.14-2-1.7-3a0.22,0.22,0,0,1,.19.07l2,1.23c0.14,0.09.2,0.09,0.25-.09,0.15-.51.32-1,0.5-1.52,0.06-.16,0-0.24-0.14-0.26l-0.13,0-3.48-1.13a0.46,0.46,0,0,1-.31-0.63l0.63-2a0.55,0.55,0,0,1,.16-0.25l1.49-1.34a0.48,0.48,0,0,1,.78.05c0.83,0.92,1.67,1.84,2.49,2.77,0.11,0.13.17,0.13,0.3,0,0.39-.37.79-0.73,1.19-1.07,0.14-.12.12-0.17,0-0.27l-1.94-1.31a0.21,0.21,0,0,1-.14-0.14l3.45,0.34c0.16,0,.19,0,0.19-0.17,0-.54,0-1.08.08-1.63,0-.17,0-0.21-0.2-0.21l-3,0a0.39,0.39,0,0,1-.31,0h0a0.35,0.35,0,0,1,.17-0.12l2-1.05c0.15-.08.2-0.13,0.06-0.28-0.36-.38-0.71-0.76-1-1.15-0.13-.16-0.21-0.15-0.35,0-0.93.85-1.87,1.68-2.81,2.52a0.45,0.45,0,0,1-.66,0l-1.37-1.52a0.62,0.62,0,0,1-.15-0.31L460.77,130a0.46,0.46,0,0,1,.43-0.65l3.63-.77c0.17,0,.22-0.09.18-0.27-0.12-.52-0.23-1-0.34-1.57,0-.15-0.07-0.17-0.21-0.1q-0.76.38-1.53,0.74a3.42,3.42,0,0,1-.79.35l0.18-.25c0.64-.91,1.31-1.8,1.92-2.73l-1.67-1.08-1.86,3.13a0.23,0.23,0,0,1,0-.18c0-.79,0-1.57.07-2.36,0-.17,0-0.22-0.21-0.18-0.49.12-1,.23-1.48,0.31-0.24,0-.28.12-0.23,0.36,0.27,1.21.52,2.42,0.78,3.63a0.44,0.44,0,0,1-.37.57l-2,.43a0.62,0.62,0,0,1-.34,0l-1.93-.63a0.45,0.45,0,0,1-.31-0.62c0.39-1.2.77-2.39,1.17-3.59,0.06-.17,0-0.23-0.15-0.28-0.5-.15-1-0.32-1.5-0.49-0.14,0-.22-0.05-0.23.14,0,0.45-.05.9-0.1,1.34a6.68,6.68,0,0,1-.11,1.1,0.05,0.05,0,0,1,0,0,0.05,0.05,0,0,0,0,0h0a0.31,0.31,0,0,1-.15-0.22c-0.43-.94-0.86-1.87-1.29-2.82-0.06-.14-0.11-0.17-0.26-0.09q-0.71.38-1.43,0.73C450.43,124,450.41,124.11,450.5,124.27Zm-2.22,10.57h0Zm17.08-.84a0.08,0.08,0,0,1,0,0,0.08,0.08,0,0,0,0,0h0ZM454,132.37a7.23,7.23,0,0,1,.42-1.17l1.47,2.61-3-.28a7.2,7.2,0,0,1,.9-0.86A0.76,0.76,0,0,0,454,132.37Zm-0.18,3.85a1,1,0,0,0-.24-0.47,7.9,7.9,0,0,1-.75-0.87l2.81,0c0.23,0,.09.12,0,0.19l-1.6,2.28h0C454,137,453.9,136.6,453.82,136.22Zm3,1.66a0.86,0.86,0,0,0-.46,0,11.44,11.44,0,0,1-1.19.24l1.42-2.37a0.28,0.28,0,0,1,.11-0.14c0.08,0,.09.09,0.12,0.15l1.14,2.49h0A8.81,8.81,0,0,1,456.85,137.88Zm2.74-1.44a6.87,6.87,0,0,1-.42,1.17L457.72,135l3,0.28a6.81,6.81,0,0,1-.9.86A0.74,0.74,0,0,0,459.6,136.44Zm0.19-3.81a0.86,0.86,0,0,0,.21.41,8.84,8.84,0,0,1,.78.9l-2.76,0c-0.06,0-.14,0-0.17,0a0.24,0.24,0,0,1,.07-0.14l1.61-2.28h0A11.45,11.45,0,0,1,459.78,132.64Zm-4.15-2a6.21,6.21,0,0,1,1.1.33,0.89,0.89,0,0,0,.48,0l1.18-.24-1.52,2.58a1.85,1.85,0,0,1-.24-0.48c-0.33-.74-0.7-1.46-1-2.22a2,2,0,0,0-.57-0.22A2,2,0,0,1,455.63,130.6Z"/><path class="cls-24" d="M471.64,19.18c-0.3,1.1-.6,2.2-0.9,3.3a0.24,0.24,0,0,1-.09-0.21c-0.18-.75-0.36-1.5-0.53-2.25,0-.17-0.08-0.2-0.24-0.12-0.42.23-.85,0.44-1.28,0.66s-0.33.17-.17,0.48l1.66,3.26a0.45,0.45,0,0,1-.21.65l-1.83.94a0.58,0.58,0,0,1-.32.07l-2-.1a0.47,0.47,0,0,1-.5-0.58c0.06-1.24.12-2.48,0.19-3.72,0-.16,0-0.22-0.2-0.23-0.53,0-1.07,0-1.6-.08-0.18,0-.21,0-0.17.2,0.16,0.76.3,1.53,0.44,2.3a0.21,0.21,0,0,1,0,.2l-2.18-2.64c-0.11-.13-0.18-0.15-0.31,0-0.38.36-.77,0.72-1.17,1.06-0.14.12-.14,0.18,0,0.31,0.71,0.71,1.41,1.42,2.11,2.14a0.51,0.51,0,0,1,.21.27h0a0.44,0.44,0,0,1-.25,0l-2.08-.62c-0.17-.05-0.23,0-0.24.16q0,0.79-.07,1.58c0,0.18,0,.23.21,0.24l3.77,0.19a0.46,0.46,0,0,1,.47.52c0,0.68-.07,1.35-0.1,2a0.66,0.66,0,0,1-.11.35l-1.05,1.63a0.48,0.48,0,0,1-.78.17l-3.12-2c-0.15-.1-0.22-0.09-0.31.06-0.28.46-.57,0.91-0.87,1.35-0.09.13-.06,0.18,0.08,0.23l1.34,0.46a7.74,7.74,0,0,1,1.08.41l-3.37.58c-0.18,0-.22.09-0.17,0.26,0.12,0.5.23,1,.32,1.5,0,0.19.1,0.24,0.29,0.19l3.29-.86a0.28,0.28,0,0,1-.13.16c-0.57.54-1.14,1.09-1.72,1.63-0.12.11-.1,0.16,0,0.24l1.27,0.82c0.26,0.17.26,0.17,0.42-.08l2-3.1a0.45,0.45,0,0,1,.68-0.15l1.73,1.12a0.54,0.54,0,0,1,.21.22c0.31,0.62.63,1.23,0.95,1.85a0.45,0.45,0,0,1-.22.65l-3.36,1.73c-0.11.06-.22,0.09-0.13,0.26q0.39,0.74.76,1.49c0.07,0.13.12,0.13,0.22,0l0.64-.56c0.42-.34.8-0.73,1.25-1a0,0,0,0,1,0,0h0a0,0,0,0,0,0,0h0a0.34,0.34,0,0,1-.06.29c-0.35,1-.7,1.92-1.06,2.88-0.06.16,0,.21,0.13,0.26,0.51,0.15,1,.32,1.53.49,0.15,0.05.22,0,.26-0.13,0.3-1.11.6-2.21,0.91-3.32a0.22,0.22,0,0,1,.08.19c0.18,0.76.37,1.52,0.54,2.28,0,0.17.08,0.21,0.24,0.12q0.7-.38,1.43-0.73c0.15-.07.19-0.14,0.09-0.28a0.82,0.82,0,0,1-.06-0.13l-1.67-3.25a0.46,0.46,0,0,1,.22-0.66l1.82-.94a0.55,0.55,0,0,1,.29-0.06l2,0.1a0.48,0.48,0,0,1,.52.59c-0.06,1.24-.12,2.48-0.19,3.72,0,0.17,0,.21.2,0.22,0.53,0,1.07,0,1.6.08,0.19,0,.21,0,0.17-0.21-0.15-.76-0.3-1.53-0.44-2.3a0.21,0.21,0,0,1,0-.2l2.21,2.67c0.1,0.12.16,0.11,0.26,0,0.4-.37.8-0.74,1.21-1.09,0.13-.11.13-0.17,0-0.29q-1.08-1.08-2.14-2.17a0.39,0.39,0,0,1-.19-0.25h0a0.35,0.35,0,0,1,.21,0l2.13,0.63c0.16,0.05.24,0,.24-0.15,0-.52,0-1,0.07-1.55,0-.2,0-0.25-0.24-0.26L474,35.06a0.45,0.45,0,0,1-.45-0.49c0-.68.07-1.37,0.1-2a0.62,0.62,0,0,1,.11-0.33l1.08-1.67a0.46,0.46,0,0,1,.76-0.16l3.12,2c0.15,0.1.22,0.09,0.31-.06,0.28-.46.57-0.91,0.87-1.35,0.09-.13.07-0.17-0.08-0.22l-1.61-.56a3.42,3.42,0,0,1-.81-0.31l0.3,0c1.1-.19,2.2-0.35,3.29-0.58l-0.42-1.94-3.53.9a0.23,0.23,0,0,1,.11-0.15l1.72-1.62c0.12-.11.13-0.17,0-0.27-0.43-.26-0.86-0.53-1.27-0.82-0.2-.14-0.29-0.11-0.41.09-0.66,1-1.34,2.08-2,3.12a0.44,0.44,0,0,1-.66.15l-1.73-1.12a0.62,0.62,0,0,1-.23-0.25c-0.3-.6-0.61-1.2-0.92-1.81a0.45,0.45,0,0,1,.22-0.66l3.36-1.72c0.16-.08.18-0.15,0.1-0.3-0.25-.46-0.48-0.94-0.72-1.41-0.07-.14-0.12-0.19-0.26-0.06-0.33.3-.67,0.6-1,0.88a6.68,6.68,0,0,1-.85.7,0.05,0.05,0,0,1,0,0,0.05,0.05,0,0,0,0,0h0a0.31,0.31,0,0,1,.05-0.26c0.35-1,.71-1.94,1.07-2.9,0.06-.15,0-0.2-0.12-0.25q-0.77-.23-1.53-0.5C471.75,19,471.69,19,471.64,19.18Zm-9,5.93h0ZM475.3,36.57a0.08,0.08,0,0,1,0,0,0.08,0.08,0,0,0,0,0h0Zm-6.9-9.17a7.23,7.23,0,0,1,1.12-.54l-0.8,2.88-1.92-2.3a7.2,7.2,0,0,1,1.24,0A0.76,0.76,0,0,0,468.4,27.4ZM465.56,30a1,1,0,0,0,.16-0.5,7.9,7.9,0,0,1,.08-1.14l2,2c0.16,0.16,0,.15-0.1.17l-2.74.48h0C465.14,30.66,465.34,30.32,465.56,30Zm1,3.32a0.86,0.86,0,0,0-.31-0.34,11.44,11.44,0,0,1-1-.67l2.68-.68a0.28,0.28,0,0,1,.18,0c0.06,0.05,0,.13,0,0.19l-1,2.57h0A8.81,8.81,0,0,1,466.53,33.32Zm3,0.91a6.87,6.87,0,0,1-1.12.53l0.8-2.88,1.91,2.3a6.81,6.81,0,0,1-1.24,0A0.74,0.74,0,0,0,469.49,34.23Zm2.82-2.56a0.86,0.86,0,0,0-.14.44,8.84,8.84,0,0,1-.08,1.19l-1.94-2s-0.12-.08-0.08-0.15a0.24,0.24,0,0,1,.15-0.05l2.75-.48h0A11.45,11.45,0,0,1,472.31,31.67ZM470.8,27.3a6.21,6.21,0,0,1,.55,1,0.89,0.89,0,0,0,.32.36c0.34,0.21.67,0.44,1,.67l-2.9.75a1.85,1.85,0,0,1,.16-0.51c0.29-.76.54-1.53,0.86-2.27a2,2,0,0,0-.25-0.56A2,2,0,0,1,470.8,27.3Z"/><path class="cls-25" d="M88.67,150.67l-3.06,1.54a0.24,0.24,0,0,1,.1-0.2c0.44-.64.87-1.27,1.32-1.91,0.1-.14.1-0.2-0.08-0.26-0.45-.16-0.9-0.34-1.35-0.51s-0.35-.13-0.47.2l-1.31,3.42a0.45,0.45,0,0,1-.62.28l-1.92-.73a0.58,0.58,0,0,1-.26-0.19l-1.26-1.56a0.47,0.47,0,0,1,.09-0.76l2.89-2.35c0.13-.1.15-0.17,0-0.3-0.35-.41-0.68-0.82-1-1.24-0.11-.15-0.17-0.13-0.27,0-0.46.63-.94,1.25-1.41,1.87a0.21,0.21,0,0,1-.15.14c0.17-1.13.33-2.26,0.5-3.39,0-.17,0-0.23-0.19-0.25-0.53,0-1.05-.09-1.57-0.16-0.18,0-.23,0-0.23.2-0.05,1-.12,2-0.18,3a0.51,0.51,0,0,1-.06.34h0a0.44,0.44,0,0,1-.13-0.22c-0.31-.65-0.63-1.31-0.93-2-0.07-.16-0.12-0.2-0.28-0.07q-0.6.51-1.22,1c-0.14.11-.15,0.18,0,0.32,0.8,1,1.59,1.95,2.38,2.93a0.46,0.46,0,0,1-.07.69l-1.57,1.28A0.66,0.66,0,0,1,76,152l-1.91.31a0.48,0.48,0,0,1-.65-0.47c-0.2-1.22-.4-2.44-0.59-3.67,0-.17-0.08-0.22-0.26-0.19-0.53.1-1.06,0.18-1.59,0.26-0.16,0-.18.07-0.11,0.21q0.28,0.65.55,1.31a7.74,7.74,0,0,1,.42,1.07l-2.69-2.12c-0.14-.11-0.21-0.1-0.31,0-0.29.42-.59,0.84-0.9,1.24-0.12.16-.11,0.23,0.06,0.34l2.84,1.87a0.28,0.28,0,0,1-.21,0L68.3,152c-0.16,0-.19,0-0.16.18,0.09,0.5.16,1,.24,1.49,0,0.31,0,.31.35,0.26l3.64-.59a0.45,0.45,0,0,1,.57.4l0.33,2a0.54,0.54,0,0,1,0,.3c-0.25.64-.49,1.29-0.74,1.94a0.45,0.45,0,0,1-.62.27L68.35,157c-0.12,0-.21-0.1-0.28.08q-0.29.79-.6,1.57c-0.05.14,0,.18,0.12,0.19l0.84,0.1c0.54,0.08,1.08.1,1.61,0.23h0a0.34,0.34,0,0,1-.25.15l-2.85,1.13c-0.16.06-.18,0.12-0.11,0.27,0.23,0.48.44,1,.65,1.46,0.06,0.14.11,0.19,0.27,0.11l3.07-1.55a0.22,0.22,0,0,1-.08.18c-0.44.64-.88,1.29-1.33,1.92-0.1.14-.1,0.2,0.08,0.26,0.5,0.18,1,.37,1.5.57,0.16,0.06.23,0,.27-0.12a0.82,0.82,0,0,1,.05-0.13l1.3-3.42a0.46,0.46,0,0,1,.64-0.28l1.92,0.73a0.55,0.55,0,0,1,.24.18l1.26,1.56a0.48,0.48,0,0,1-.09.78l-2.89,2.35c-0.13.11-.14,0.17,0,0.29,0.35,0.41.69,0.82,1,1.24,0.12,0.15.17,0.13,0.27,0,0.46-.63.94-1.25,1.41-1.87a0.21,0.21,0,0,1,.15-0.14c-0.17,1.14-.33,2.29-0.51,3.43,0,0.15,0,.19.16,0.2,0.54,0,1.08.1,1.62,0.16,0.17,0,.21,0,0.22-0.19,0.05-1,.12-2,0.18-3a0.39,0.39,0,0,1,.06-0.31h0a0.35,0.35,0,0,1,.11.18c0.32,0.67.64,1.33,1,2,0.07,0.16.12,0.21,0.28,0.08,0.39-.34.79-0.67,1.2-1,0.16-.12.16-0.2,0-0.35-0.8-1-1.59-2-2.38-2.93a0.45,0.45,0,0,1,.07-0.66l1.59-1.3a0.62,0.62,0,0,1,.32-0.14l2-.31a0.46,0.46,0,0,1,.63.46c0.2,1.22.4,2.44,0.59,3.66,0,0.17.08,0.22,0.26,0.19,0.53-.1,1.06-0.18,1.59-0.26,0.16,0,.17-0.07.11-0.21q-0.34-.78-0.66-1.57a3.42,3.42,0,0,1-.31-0.81l0.24,0.19c0.88,0.69,1.73,1.4,2.63,2.05l1.16-1.61-3-2a0.23,0.23,0,0,1,.18,0l2.35,0.19c0.17,0,.22,0,0.19-0.2-0.09-.5-0.18-1-0.24-1.49,0-.24-0.11-0.29-0.34-0.25-1.22.21-2.44,0.4-3.66,0.59a0.44,0.44,0,0,1-.55-0.39c-0.11-.68-0.22-1.35-0.33-2a0.62,0.62,0,0,1,0-.34c0.25-.63.48-1.26,0.72-1.89a0.45,0.45,0,0,1,.64-0.28L88.11,156c0.17,0.07.23,0,.29-0.13,0.18-.5.37-1,0.57-1.48,0.06-.14.06-0.22-0.13-0.24-0.45,0-.89-0.1-1.34-0.16a6.68,6.68,0,0,1-1.09-.17h0a0.31,0.31,0,0,1,.23-0.14l2.88-1.14c0.15-.06.17-0.11,0.1-0.25q-0.34-.73-0.65-1.47C88.9,150.61,88.83,150.59,88.67,150.67Zm-10.45-2.74h0Zm0,17.1h0Zm2.19-11.26a7.23,7.23,0,0,1,1.15.47l-2.68,1.33,0.43-3a7.2,7.2,0,0,1,.81.94A0.76,0.76,0,0,0,80.4,153.76Zm-3.83-.37a1,1,0,0,0,.48-0.22,7.9,7.9,0,0,1,.9-0.7c-0.05.93-.1,1.87-0.16,2.8,0,0.23-.13.08-0.19,0l-2.19-1.72h0C75.79,153.52,76.18,153.45,76.57,153.39Zm-1.81,2.95a0.86,0.86,0,0,0,0-.46,11.44,11.44,0,0,1-.18-1.2l2.3,1.53a0.28,0.28,0,0,1,.13.12c0,0.08-.1.09-0.16,0.11l-2.55,1h0A8.81,8.81,0,0,1,74.76,156.33Zm1.3,2.81a6.87,6.87,0,0,1-1.15-.48l2.68-1.33-0.42,3a6.81,6.81,0,0,1-.81-0.94A0.74,0.74,0,0,0,76.06,159.15Zm3.79,0.38a0.86,0.86,0,0,0-.42.19,8.84,8.84,0,0,1-.94.73q0.08-1.38.16-2.76c0-.06,0-0.14.05-0.16a0.24,0.24,0,0,1,.14.07l2.2,1.72h0A11.45,11.45,0,0,1,79.85,159.52Zm2.24-4a6.21,6.21,0,0,1-.38,1.08,0.89,0.89,0,0,0-.05.48c0.07,0.4.12,0.79,0.18,1.19l-2.5-1.65a1.85,1.85,0,0,1,.49-0.22c0.75-.29,1.5-0.62,2.26-0.88a2,2,0,0,0,.25-0.56A2,2,0,0,1,82.09,155.48Z"/><path class="cls-21" d="M176.35,61.12l0.1,0.8a0.06,0.06,0,0,1,0,0l-0.32-.44s0,0-.06,0l-0.22.26c-0.06.07-.06,0.07,0,0.12l0.65,0.55a0.11,0.11,0,0,1,0,.16l-0.31.37-0.06,0-0.44.16a0.11,0.11,0,0,1-.16-0.08l-0.3-.82s0,0-.06,0l-0.35.13s0,0,0,.06l0.3,0.46a0,0,0,0,1,0,0l-0.71-.37s-0.05,0-.07,0l-0.16.34s0,0.05,0,.07l0.65,0.27a0.12,0.12,0,0,1,.07,0h-0.06l-0.51.05s-0.05,0,0,.06l0.13,0.35s0,0,.07,0l0.83-.3a0.11,0.11,0,0,1,.15.07l0.16,0.45a0.16,0.16,0,0,1,0,.09l-0.08.45a0.11,0.11,0,0,1-.15.11l-0.86-.16s-0.06,0-.06,0,0,0.25-.07.37,0,0,0,0l0.33,0a1.81,1.81,0,0,1,.27,0l-0.68.43s0,0,0,.07l0.21,0.3s0,0,.08,0l0.63-.48a0.06,0.06,0,0,1,0,0l-0.22.51s0,0,0,0l0.35,0.06c0.07,0,.07,0,0.08-0.06l0.15-.85a0.1,0.1,0,0,1,.13-0.09l0.48,0.09,0.06,0,0.37,0.31a0.11,0.11,0,0,1,0,.16l-0.57.68s0,0,0,.07l0.3,0.25s0,0,.05,0l0.09-.18c0.06-.11.11-0.23,0.18-0.34a0,0,0,0,1,0,0h0a0,0,0,0,0,0,0h0a0.08,0.08,0,0,1,0,.07c0,0.24,0,.48,0,0.72,0,0,0,0,.05,0l0.37,0s0.05,0,0-.05c0-.27-0.07-0.53-0.1-0.8a0.05,0.05,0,0,1,0,0l0.32,0.44s0,0,.06,0l0.24-.29s0,0,0-.07l0,0-0.66-.55a0.11,0.11,0,0,1,0-.16l0.31-.37,0.06,0,0.44-.16a0.11,0.11,0,0,1,.17.08l0.3,0.82s0,0,.06,0l0.35-.13s0,0,0-.06l-0.3-.46a0.05,0.05,0,0,1,0,0l0.72,0.38s0,0,.06,0l0.16-.35s0,0,0-.06l-0.66-.28a0.09,0.09,0,0,1-.06,0h0l0.52-.05s0.06,0,0-.06-0.09-.23-0.12-0.34,0-.05-0.08,0l-0.83.3a0.1,0.1,0,0,1-.14-0.07L178,63.82a0.15,0.15,0,0,1,0-.08l0.08-.46a0.11,0.11,0,0,1,.15-0.1l0.86,0.16s0.06,0,.06,0,0-.25.07-0.37,0,0,0,0l-0.4,0a0.8,0.8,0,0,1-.2,0l0.06,0c0.22-.14.44-0.27,0.66-0.42L179,62.07l-0.68.51a0.05,0.05,0,0,1,0,0l0.22-.51s0,0,0-.06l-0.35-.06c-0.06,0-.07,0-0.08.06,0,0.29-.1.57-0.15,0.86a0.1,0.1,0,0,1-.13.09l-0.47-.09-0.07,0-0.36-.31a0.11,0.11,0,0,1,0-.16l0.57-.68s0,0,0-.07l-0.28-.24s0,0-.06,0l-0.14.28a1.57,1.57,0,0,1-.12.23,0,0,0,0,1,0,0,0,0,0,0,0,0,0h0a0.07,0.07,0,0,1,0-.06c0-.24,0-0.48,0-0.73,0,0,0,0,0,0l-0.38,0S176.34,61.08,176.35,61.12Zm-1.42,2.1h0Zm3.78,1.33h0Zm-2.32-1.36a1.7,1.7,0,0,1,.19-0.22l0.09,0.7L176,63.34a1.69,1.69,0,0,1,.27-0.11ZM176,64a0.22,0.22,0,0,0,0-.12,1.85,1.85,0,0,1-.09-0.25l0.61,0.25s0,0,0,0l-0.55.35h0C176,64.19,176,64.1,176,64Zm0.51,0.63a0.2,0.2,0,0,0-.1,0l-0.28-.05,0.52-.39,0,0s0,0,0,0l0,0.64h0A2.07,2.07,0,0,1,176.52,64.64Zm0.72-.07a1.61,1.61,0,0,1-.19.22l-0.09-.7,0.62,0.32a1.6,1.6,0,0,1-.27.11Zm0.38-.81a0.2,0.2,0,0,0,0,.11,2.07,2.07,0,0,1,.09.26l-0.6-.25s0,0,0,0l0,0,0.55-.35h0A2.68,2.68,0,0,1,177.62,63.76Zm-0.72-.81a1.46,1.46,0,0,1,.21.17,0.21,0.21,0,0,0,.1,0l0.28,0.05-0.56.42a0.43,0.43,0,0,1,0-.13c0-.19,0-0.38,0-0.57a0.47,0.47,0,0,0-.11-0.1A0.47,0.47,0,0,1,176.9,62.95Z"/><path class="cls-21" d="M36.37,193.79l0.1,0.8a0.06,0.06,0,0,1,0,0l-0.32-.44s0,0-.06,0l-0.22.26c-0.06.07-.06,0.07,0,0.12L36.5,195a0.11,0.11,0,0,1,0,.16l-0.31.37-0.06,0-0.44.16a0.11,0.11,0,0,1-.16-0.08l-0.3-.82s0,0-.06,0l-0.35.13s0,0,0,.06l0.3,0.46a0,0,0,0,1,0,0l-0.71-.37s-0.05,0-.07,0l-0.16.34s0,0.05,0,.07l0.65,0.27a0.12,0.12,0,0,1,.07,0H34.87l-0.51.05s-0.05,0,0,.06l0.13,0.35s0,0,.07,0l0.83-.3a0.11,0.11,0,0,1,.15.07l0.16,0.45a0.16,0.16,0,0,1,0,.09l-0.08.45a0.11,0.11,0,0,1-.15.11l-0.86-.16s-0.06,0-.06,0,0,0.25-.07.37,0,0,0,0l0.33,0a1.81,1.81,0,0,1,.27,0l-0.68.43s0,0,0,.07l0.21,0.3s0,0,.08,0l0.63-.48a0.06,0.06,0,0,1,0,0l-0.22.51s0,0,0,0l0.35,0.06c0.07,0,.07,0,0.08-0.06l0.15-.85a0.1,0.1,0,0,1,.13-0.09l0.48,0.09,0.06,0,0.37,0.31a0.11,0.11,0,0,1,0,.16l-0.57.68s0,0,0,.07l0.3,0.25s0,0,.05,0l0.09-.18c0.06-.11.11-0.23,0.18-0.34a0,0,0,0,1,0,0h0a0,0,0,0,0,0,0h0a0.08,0.08,0,0,1,0,.07c0,0.24,0,.48,0,0.72,0,0,0,0,.05,0l0.37,0s0.05,0,0-.05c0-.27-0.07-0.53-0.1-0.8a0.05,0.05,0,0,1,0,0L37.56,199s0,0,.06,0l0.24-.29s0,0,0-.07l0,0-0.66-.55a0.11,0.11,0,0,1,0-.16l0.31-.37,0.06,0,0.44-.16a0.11,0.11,0,0,1,.17.08l0.3,0.82s0,0,.06,0l0.35-.13s0,0,0-.06l-0.3-.46a0.05,0.05,0,0,1,0,0L39.27,198s0,0,.06,0l0.16-.35s0,0,0-.06l-0.66-.28a0.09,0.09,0,0,1-.06,0h0l0.52-.05s0.06,0,0-.06-0.09-.23-0.12-0.34,0-.05-0.08,0l-0.83.3a0.1,0.1,0,0,1-.14-0.07L38,196.49a0.15,0.15,0,0,1,0-.08l0.08-.46a0.11,0.11,0,0,1,.15-0.1L39.09,196s0.06,0,.06,0,0-.25.07-0.37,0,0,0,0l-0.4,0a0.8,0.8,0,0,1-.2,0l0.06,0c0.22-.14.44-0.27,0.66-0.42L39,194.74l-0.68.51a0.05,0.05,0,0,1,0,0l0.22-.51s0,0,0-.06l-0.35-.06c-0.06,0-.07,0-0.08.06,0,0.29-.1.57-0.15,0.86a0.1,0.1,0,0,1-.13.09l-0.47-.09-0.07,0-0.36-.31a0.11,0.11,0,0,1,0-.16l0.57-.68s0,0,0-.07L37.21,194s0,0-.06,0L37,194.3a1.57,1.57,0,0,1-.12.23,0,0,0,0,1,0,0,0,0,0,0,0,0,0h0a0.07,0.07,0,0,1,0-.06c0-.24,0-0.48,0-0.73,0,0,0,0,0,0l-0.38,0S36.36,193.75,36.37,193.79ZM35,195.89h0Zm3.78,1.33h0Zm-2.32-1.36a1.7,1.7,0,0,1,.19-0.22l0.09,0.7L36.07,196a1.69,1.69,0,0,1,.27-0.11Zm-0.38.82a0.22,0.22,0,0,0,0-.12,1.85,1.85,0,0,1-.09-0.25l0.61,0.25s0,0,0,0L36,197h0C36,196.86,36,196.77,36,196.68Zm0.51,0.63a0.2,0.2,0,0,0-.1,0l-0.28-.05,0.52-.39,0,0s0,0,0,0l0,0.64h0A2.07,2.07,0,0,1,36.54,197.31Zm0.72-.07a1.61,1.61,0,0,1-.19.22l-0.09-.7,0.62,0.32a1.6,1.6,0,0,1-.27.11Zm0.38-.81a0.2,0.2,0,0,0,0,.11,2.07,2.07,0,0,1,.09.26l-0.6-.25s0,0,0,0l0,0,0.55-.35h0A2.68,2.68,0,0,1,37.64,196.43Zm-0.72-.81a1.46,1.46,0,0,1,.21.17,0.21,0.21,0,0,0,.1,0l0.28,0.05-0.56.42a0.43,0.43,0,0,1,0-.13c0-.19,0-0.38,0-0.57a0.47,0.47,0,0,0-.11-0.1A0.47,0.47,0,0,1,36.92,195.62Z"/><path class="cls-21" d="M432.21,190.94l0.1,0.8a0.06,0.06,0,0,1,0,0l-0.32-.44s0,0-.06,0l-0.22.26c-0.06.07-.06,0.07,0,0.12l0.65,0.55a0.11,0.11,0,0,1,0,.16l-0.31.37-0.06,0-0.44.16a0.11,0.11,0,0,1-.16-0.08l-0.3-.82s0,0-.06,0l-0.35.13s0,0,0,.06l0.3,0.46a0,0,0,0,1,0,0l-0.71-.37s-0.05,0-.07,0l-0.16.34s0,0.05,0,.07L430.7,193a0.12,0.12,0,0,1,.07,0h-0.06l-0.51.05s-0.05,0,0,.06l0.13,0.35s0,0,.07,0l0.83-.3a0.11,0.11,0,0,1,.15.07l0.16,0.45a0.16,0.16,0,0,1,0,.09l-0.08.45a0.11,0.11,0,0,1-.15.11l-0.86-.16s-0.06,0-.06,0,0,0.25-.07.37,0,0,0,0l0.33,0a1.81,1.81,0,0,1,.27,0l-0.68.43s0,0,0,.07l0.21,0.3s0,0,.08,0l0.63-.48a0.06,0.06,0,0,1,0,0l-0.22.51s0,0,0,0l0.35,0.06c0.07,0,.07,0,0.08-0.06l0.15-.85a0.1,0.1,0,0,1,.13-0.09l0.48,0.09,0.06,0,0.37,0.31a0.11,0.11,0,0,1,0,.16l-0.57.68s0,0,0,.07l0.3,0.25s0,0,.05,0l0.09-.18c0.06-.11.11-0.23,0.18-0.34a0,0,0,0,1,0,0h0a0,0,0,0,0,0,0h0a0.08,0.08,0,0,1,0,.07c0,0.24,0,.48,0,0.72,0,0,0,0,.05,0l0.37,0s0.05,0,0-.05c0-.27-0.07-0.53-0.1-0.8a0.05,0.05,0,0,1,0,0l0.32,0.44s0,0,.06,0l0.24-.29s0,0,0-.07l0,0-0.66-.55a0.11,0.11,0,0,1,0-.16l0.31-.37,0.06,0,0.44-.16a0.11,0.11,0,0,1,.17.08l0.3,0.82s0,0,.06,0l0.35-.13s0,0,0-.06l-0.3-.46a0.05,0.05,0,0,1,0,0l0.72,0.38s0,0,.06,0l0.16-.35s0,0,0-.06l-0.66-.28a0.09,0.09,0,0,1-.06,0h0l0.52-.05s0.06,0,0-.06-0.09-.23-0.12-0.34,0-.05-0.08,0l-0.83.3a0.1,0.1,0,0,1-.14-0.07l-0.16-.45a0.15,0.15,0,0,1,0-.08l0.08-.46a0.11,0.11,0,0,1,.15-0.1l0.86,0.16s0.06,0,.06,0,0-.25.07-0.37,0,0,0,0l-0.4,0a0.8,0.8,0,0,1-.2,0l0.06,0c0.22-.14.44-0.27,0.66-0.42l-0.27-.38-0.68.51a0.05,0.05,0,0,1,0,0l0.22-.51s0,0,0-.06l-0.35-.06c-0.06,0-.07,0-0.08.06,0,0.29-.1.57-0.15,0.86a0.1,0.1,0,0,1-.13.09l-0.47-.09-0.07,0-0.36-.31a0.11,0.11,0,0,1,0-.16l0.57-.68s0,0,0-.07l-0.28-.24s0,0-.06,0l-0.14.28a1.57,1.57,0,0,1-.12.23,0,0,0,0,1,0,0,0,0,0,0,0,0,0h0a0.07,0.07,0,0,1,0-.06c0-.24,0-0.48,0-0.73,0,0,0,0,0,0l-0.38,0S432.2,190.9,432.21,190.94Zm-1.42,2.1h0Zm3.78,1.33h0ZM432.25,193a1.7,1.7,0,0,1,.19-0.22l0.09,0.7-0.62-.32a1.69,1.69,0,0,1,.27-0.11Zm-0.38.82a0.22,0.22,0,0,0,0-.12,1.85,1.85,0,0,1-.09-0.25l0.61,0.25s0,0,0,0l-0.55.35h0C431.84,194,431.85,193.92,431.87,193.83Zm0.51,0.63a0.2,0.2,0,0,0-.1,0l-0.28-.05,0.52-.39,0,0s0,0,0,0l0,0.64h0A2.07,2.07,0,0,1,432.38,194.46Zm0.72-.07a1.61,1.61,0,0,1-.19.22l-0.09-.7,0.62,0.32a1.6,1.6,0,0,1-.27.11Zm0.38-.81a0.2,0.2,0,0,0,0,.11,2.07,2.07,0,0,1,.09.26l-0.6-.25s0,0,0,0l0,0,0.55-.35h0A2.68,2.68,0,0,1,433.48,193.58Zm-0.72-.81a1.46,1.46,0,0,1,.21.17,0.21,0.21,0,0,0,.1,0l0.28,0.05-0.56.42a0.43,0.43,0,0,1,0-.13c0-.19,0-0.38,0-0.57a0.47,0.47,0,0,0-.11-0.1A0.47,0.47,0,0,1,432.76,192.77Z"/><path class="cls-1" d="M185.2,454.75l1.15,4.43c0.25,1,.49,1.87.65,2.77h0.05c0.2-.88.49-1.82,0.77-2.75l1.42-4.45h1.33l1.35,4.36c0.32,1,.58,2,0.77,2.84h0.05a26.17,26.17,0,0,1,.67-2.83l1.24-4.38h1.57l-2.81,8.71H192l-1.33-4.16a29.13,29.13,0,0,1-.77-2.86h0a25.64,25.64,0,0,1-.79,2.88l-1.4,4.14h-1.44l-2.63-8.71h1.62Z"/><path class="cls-1" d="M198.52,459.39a2.79,2.79,0,0,0,3,3,5.73,5.73,0,0,0,2.41-.45l0.27,1.13a7.06,7.06,0,0,1-2.9.54,4,4,0,0,1-4.29-4.39c0-2.63,1.55-4.7,4.09-4.7,2.84,0,3.6,2.5,3.6,4.11a6,6,0,0,1-.05.74h-6.12Zm4.65-1.13a2.26,2.26,0,0,0-2.2-2.58,2.63,2.63,0,0,0-2.43,2.58h4.63Z"/><path class="cls-1" d="M210.25,461.84a4.16,4.16,0,0,0,2.09.63c1.15,0,1.69-.58,1.69-1.3s-0.45-1.17-1.62-1.6c-1.57-.56-2.3-1.42-2.3-2.47,0-1.41,1.13-2.56,3-2.56a4.35,4.35,0,0,1,2.14.54l-0.4,1.15a3.38,3.38,0,0,0-1.78-.5,1.27,1.27,0,0,0-1.46,1.19c0,0.72.52,1,1.66,1.48,1.51,0.58,2.29,1.33,2.29,2.63,0,1.53-1.19,2.61-3.26,2.61a5,5,0,0,1-2.45-.59Z"/><path class="cls-1" d="M218.48,459.39a2.79,2.79,0,0,0,3,3,5.73,5.73,0,0,0,2.41-.45l0.27,1.13a7.06,7.06,0,0,1-2.9.54,4,4,0,0,1-4.29-4.39c0-2.63,1.55-4.7,4.09-4.7,2.84,0,3.6,2.5,3.6,4.11a6,6,0,0,1-.05.74h-6.12Zm4.65-1.13a2.26,2.26,0,0,0-2.2-2.58,2.63,2.63,0,0,0-2.43,2.58h4.63Z"/><path class="cls-1" d="M227.5,459.39a2.79,2.79,0,0,0,3,3,5.73,5.73,0,0,0,2.41-.45l0.27,1.13a7.06,7.06,0,0,1-2.9.54,4,4,0,0,1-4.29-4.39c0-2.63,1.55-4.7,4.09-4.7,2.84,0,3.6,2.5,3.6,4.11a6,6,0,0,1-.05.74H227.5Zm4.65-1.13a2.26,2.26,0,0,0-2.2-2.58,2.63,2.63,0,0,0-2.43,2.58h4.63Z"/><path class="cls-1" d="M241.36,452.25v2.5h2.27V456h-2.27v4.7c0,1.08.31,1.69,1.19,1.69a3.5,3.5,0,0,0,.92-0.11l0.07,1.19a3.88,3.88,0,0,1-1.4.22,2.19,2.19,0,0,1-1.71-.67,3.23,3.23,0,0,1-.61-2.27V456h-1.35v-1.21h1.35v-2.09Z"/><path class="cls-1" d="M245.41,450.68H247v5.44h0a3,3,0,0,1,1.13-1.12,3.27,3.27,0,0,1,1.62-.45c1.17,0,3,.72,3,3.73v5.19h-1.58v-5c0-1.4-.52-2.59-2-2.59a2.28,2.28,0,0,0-2.12,1.58,1.92,1.92,0,0,0-.11.76v5.26h-1.58V450.68Z"/><path class="cls-1" d="M256.28,459.39a2.79,2.79,0,0,0,3,3,5.73,5.73,0,0,0,2.41-.45L262,463.1a7.06,7.06,0,0,1-2.9.54,4,4,0,0,1-4.29-4.39c0-2.63,1.55-4.7,4.09-4.7,2.84,0,3.6,2.5,3.6,4.11a5.88,5.88,0,0,1-.05.74h-6.12Zm4.65-1.13a2.26,2.26,0,0,0-2.2-2.58,2.63,2.63,0,0,0-2.43,2.58h4.63Z"/><path class="cls-1" d="M270.3,463.46l-4-12.14H268l1.89,6c0.52,1.64,1,3.12,1.3,4.54h0c0.34-1.4.85-2.94,1.39-4.52l2.05-6h1.67L272,463.46H270.3Z"/><path class="cls-1" d="M281.86,463.46l-0.13-1.1h-0.05a3.25,3.25,0,0,1-2.67,1.3,2.48,2.48,0,0,1-2.67-2.5c0-2.11,1.87-3.26,5.24-3.24v-0.18a1.8,1.8,0,0,0-2-2,4.34,4.34,0,0,0-2.27.65l-0.36-1a5.41,5.41,0,0,1,2.86-.77c2.67,0,3.31,1.82,3.31,3.57v3.26a12.33,12.33,0,0,0,.14,2.09h-1.44ZM281.62,459c-1.73,0-3.69.27-3.69,2a1.4,1.4,0,0,0,1.49,1.51,2.17,2.17,0,0,0,2.11-1.46,1.63,1.63,0,0,0,.09-0.5V459Z"/><path class="cls-1" d="M285.71,450.68h1.58v12.78h-1.58V450.68Z"/><path class="cls-1" d="M297.25,461.09c0,0.9,0,1.69.07,2.38h-1.4L295.83,462h0a3.28,3.28,0,0,1-2.88,1.62c-1.37,0-3-.76-3-3.82v-5.1h1.58v4.83c0,1.66.5,2.77,1.94,2.77a2.29,2.29,0,0,0,2.09-1.44,2.32,2.32,0,0,0,.14-0.81v-5.35h1.58v6.34Z"/><path class="cls-1" d="M300.76,459.39a2.79,2.79,0,0,0,3,3,5.73,5.73,0,0,0,2.41-.45l0.27,1.13a7.06,7.06,0,0,1-2.9.54,4,4,0,0,1-4.29-4.39c0-2.63,1.55-4.7,4.09-4.7,2.84,0,3.6,2.5,3.6,4.11a5.88,5.88,0,0,1-.05.74h-6.12Zm4.65-1.13a2.26,2.26,0,0,0-2.2-2.58,2.63,2.63,0,0,0-2.43,2.58h4.63Z"/><path class="cls-1" d="M308.68,461.84a4.15,4.15,0,0,0,2.09.63c1.15,0,1.69-.58,1.69-1.3s-0.45-1.17-1.62-1.6c-1.57-.56-2.3-1.42-2.3-2.47,0-1.41,1.13-2.56,3-2.56a4.34,4.34,0,0,1,2.14.54l-0.4,1.15a3.39,3.39,0,0,0-1.78-.5,1.27,1.27,0,0,0-1.46,1.19c0,0.72.52,1,1.66,1.48C313.21,459,314,459.74,314,461c0,1.53-1.19,2.61-3.26,2.61a5,5,0,0,1-2.45-.59Z"/><path class="cls-1" d="M315.45,462.53a1.06,1.06,0,0,1,1.08-1.13A1.14,1.14,0,1,1,315.45,462.53Z"/><path class="cls-1" d="M57.56,133a7.92,7.92,0,0,1,4.13-.16,8.4,8.4,0,0,1,3.74,1.79q1.17,0.94,2.73,2.07a37.89,37.89,0,0,0,3.31,2.14,21.1,21.1,0,0,0,3.67,1.68,11.47,11.47,0,0,0,3.78.66,7.25,7.25,0,0,0,4.84-1.4,2.7,2.7,0,0,0,.86-2.22,2.78,2.78,0,0,0-1-1.83,30.14,30.14,0,0,0-4.33-2.92,57.84,57.84,0,0,1-5.46-3.59,26.13,26.13,0,0,1-4.68-4.41,8.37,8.37,0,0,1-2-5.46,15.82,15.82,0,0,1,2-7.64,29.28,29.28,0,0,1,4.91-6.63,40.24,40.24,0,0,1,6.24-5.19,36.51,36.51,0,0,1,5.89-3.31,18.39,18.39,0,0,1,5.46-1.4,5.77,5.77,0,0,1,4.6,1.56,12.28,12.28,0,0,1,2.5,3.12,13.34,13.34,0,0,1,1.4,3.43,5.82,5.82,0,0,1,.16,2.3,9.68,9.68,0,0,1-.55,2.15,12.59,12.59,0,0,1-.9,1.87,16.51,16.51,0,0,1-1,1.48q-0.78,1-1.56,2.22t-1.48,2.38q-0.7,1.17-1.33,2.26l-1,1.79a1.51,1.51,0,0,1-.7.7,1,1,0,0,1-1-.47,6.21,6.21,0,0,1-1.56-3,7.13,7.13,0,0,1,.78-4.6,21.49,21.49,0,0,1,1.83-3.2q1.21-1.79,2.3-3.55a18.07,18.07,0,0,0,1.64-3.24,2,2,0,0,0-.16-2.18q-0.7-.7-2.57-0.23a19.38,19.38,0,0,0-4.29,1.75A41.43,41.43,0,0,0,83.64,105a37.57,37.57,0,0,0-4.91,4.33A28.09,28.09,0,0,0,75,114.21a10.26,10.26,0,0,0-1.6,5,5.09,5.09,0,0,0,1.48,3.63,20,20,0,0,0,3.82,3.28Q81,127.59,83.41,129a43.46,43.46,0,0,1,4.09,2.53,4.2,4.2,0,0,1,2,4.13,10.49,10.49,0,0,1-2.85,5.54,11.71,11.71,0,0,1-5,3.16,16.14,16.14,0,0,1-7.25.66,23.59,23.59,0,0,1-8.42-2.85,29.63,29.63,0,0,1-8.54-7.37,1.56,1.56,0,0,1-.51-1.21A0.86,0.86,0,0,1,57.56,133Z"/><path class="cls-1" d="M100.53,132.63q-1.51,4.33-.6,7.06a3.65,3.65,0,0,0,3.42,2.86,7.8,7.8,0,0,0,3.77-.69,15.1,15.1,0,0,0,3.42-2.14,22.92,22.92,0,0,0,2.95-2.92,30.33,30.33,0,0,0,2.35-3.17,0.69,0.69,0,0,1,.56-0.38,0.58,0.58,0,0,1,.5.44,2.88,2.88,0,0,1,0,1.51,5.94,5.94,0,0,1-1.07,2.38,16.56,16.56,0,0,1-5.33,4.83,14.12,14.12,0,0,1-7,2,8.21,8.21,0,0,1-5-1.32,7.83,7.83,0,0,1-2.86-3.58,10.74,10.74,0,0,1-.6-5.08,16.87,16.87,0,0,1,1.79-5.9,23.89,23.89,0,0,1,3.39-5.15,18,18,0,0,1,3.77-3.33,9.79,9.79,0,0,1,3.58-1.47,4.23,4.23,0,0,1,2.89.41,14,14,0,0,1,2.07,1.44,9.94,9.94,0,0,1,1.63,1.82,2.88,2.88,0,0,1,.53,1.51,7.43,7.43,0,0,1-.13,2.1,10.54,10.54,0,0,1-.82,2.45,11.11,11.11,0,0,1-1.6,2.48,11.56,11.56,0,0,1-2.48,2.39,8.14,8.14,0,0,1-2.86,1.29,6.27,6.27,0,0,1-3.11-.09A9,9,0,0,1,100.53,132.63Zm0.56-1.32a3.57,3.57,0,0,0,2.2.69,4.34,4.34,0,0,0,2-.63,8,8,0,0,0,1.76-1.44q0.81-.88,1.51-1.76a20.11,20.11,0,0,0,1.35-2,15.64,15.64,0,0,0,1-2,6,6,0,0,0,.44-1.63,1,1,0,0,0-.25-0.94,1.72,1.72,0,0,0-1.63.06,9,9,0,0,0-2.51,1.63,22.58,22.58,0,0,0-2.79,2.95,22.35,22.35,0,0,0-2.54,4q-0.13.31-.25,0.56Z"/><path class="cls-1" d="M135.17,123q0.63-1.13,1.19-2.1t1.07-1.73q0.81-1.19,1.51-.38a5.29,5.29,0,0,1,.88,2.72,8.08,8.08,0,0,1-.94,4.22,27.06,27.06,0,0,1-1.32,2.41q-0.82,1.35-1.66,2.82l-1.66,2.91q-0.82,1.44-1.38,2.69A19.31,19.31,0,0,0,132,139a5.72,5.72,0,0,0-.25,1.94,2.28,2.28,0,0,0,.44,1.28,1.3,1.3,0,0,0,1.19.41,4.17,4.17,0,0,0,2-.82,12.49,12.49,0,0,0,2.2-2,25.21,25.21,0,0,0,2.13-2.76,28.55,28.55,0,0,0,1.85-3.17,0.8,0.8,0,0,1,.53-0.47,0.51,0.51,0,0,1,.47.41,3.69,3.69,0,0,1,.12,1.51,6.55,6.55,0,0,1-.69,2.39,12.49,12.49,0,0,1-1.63,2.54,14.05,14.05,0,0,1-2.23,2.18,12.09,12.09,0,0,1-2.54,1.54,5.78,5.78,0,0,1-2.64.52,5.34,5.34,0,0,1-3.86-1.54,5.15,5.15,0,0,1-1.29-3.61,17.19,17.19,0,0,1-3.55,3.42,7.23,7.23,0,0,1-4.3,1.47A4.58,4.58,0,0,1,116.5,143a6.13,6.13,0,0,1-1.57-3.58,12.72,12.72,0,0,1,.5-5,19,19,0,0,1,2.73-5.62,30.17,30.17,0,0,1,7.31-7.88q3.48-2.35,5.87-2.35a3.43,3.43,0,0,1,3,1.35A4.7,4.7,0,0,1,135.17,123Zm-5.46,9.73a28.76,28.76,0,0,0,3.55-8q0.53-2.82-.85-2.95a3.58,3.58,0,0,0-1.95.63,14.46,14.46,0,0,0-2.54,1.95,29.14,29.14,0,0,0-2.79,3,42.08,42.08,0,0,0-2.76,3.86,23,23,0,0,0-2,4,18.34,18.34,0,0,0-1,3.51,5.44,5.44,0,0,0,.06,2.51,1.24,1.24,0,0,0,1.25,1,3.89,3.89,0,0,0,2-.69,11.49,11.49,0,0,0,2.26-1.95,25.65,25.65,0,0,0,2.35-3Q128.52,134.83,129.71,132.75Z"/><path class="cls-1" d="M142.83,133.13q1.94-2.64,3.89-5.52t3.33-5.27a10.2,10.2,0,0,1,.75-2.89,6,6,0,0,1,1.51-1.95,4.82,4.82,0,0,1,2-1.16,1.41,1.41,0,0,1,1.38.22,1,1,0,0,1,.31,1.1,9,9,0,0,1-.82,1.66l-0.35.6-0.35.6a31.58,31.58,0,0,0-.09,4.17q0.09,2,.28,3.86t0.31,3.61a30.4,30.4,0,0,1,.06,3.36,18.45,18.45,0,0,1-.63,3.64,5.11,5.11,0,0,1-2.2,2.95,12.16,12.16,0,0,0,5.18-3.67,23.62,23.62,0,0,0,3.23-5.05,0.61,0.61,0,0,1,.63-0.44,0.75,0.75,0,0,1,.56.44,3.5,3.5,0,0,1,.06,1.57,7,7,0,0,1-.94,2.57,13.11,13.11,0,0,1-11.11,6.9,14.47,14.47,0,0,1-2.7-.13,9.37,9.37,0,0,1-2.51-.72,8.39,8.39,0,0,1-2.23-1.47,9.49,9.49,0,0,1-1.85-2.38,8.51,8.51,0,0,1-.82-2.32,8.9,8.9,0,0,1-.16-2.45,7.14,7.14,0,0,1,.53-2.23,4.54,4.54,0,0,1,1.26-1.73q1.19-1,1.32.63a4.7,4.7,0,0,1,.06.75A4.47,4.47,0,0,0,142.83,133.13Zm7.09-6.78q-1.38,2.51-3,5.05t-3.48,5.12a17.5,17.5,0,0,0,.88,2.51,8,8,0,0,0,1.13,1.88,4,4,0,0,0,1.35,1.1,1.9,1.9,0,0,0,1.47.09,2.56,2.56,0,0,0,1.51-2.1,20,20,0,0,0,.5-4.2q0.06-2.42-.09-5T149.92,126.35Z"/><path class="cls-1" d="M180.8,129.93a2.61,2.61,0,0,1-1.69.82,24.84,24.84,0,0,1-1.44,4.11,21.94,21.94,0,0,1-2.26,3.92,20.5,20.5,0,0,1-2.89,3.23,9.18,9.18,0,0,1-3.33,2,7.43,7.43,0,0,1-3.86.13,7,7,0,0,1-4-2.89,7.35,7.35,0,0,1-1.41-3,11.31,11.31,0,0,1-.16-3.48,17.27,17.27,0,0,1,.85-3.77,22.22,22.22,0,0,1,1.73-3.83,21.51,21.51,0,0,1,4.49-5.55,9.6,9.6,0,0,1,5.49-2.6,4.85,4.85,0,0,1,2.39.41,5.65,5.65,0,0,1,1.88,1.73,10,10,0,0,0,1.13,1.29,7.48,7.48,0,0,1,1,1.22,4.82,4.82,0,0,1,.69,1.69,9.8,9.8,0,0,1,.09,2.7,4.37,4.37,0,0,0-.06.72,4.44,4.44,0,0,1-.06.72,2.73,2.73,0,0,0,.6-0.06,3.11,3.11,0,0,1,.66-0.06,0.29,0.29,0,0,1,.35.19A0.6,0.6,0,0,1,180.8,129.93Zm-5.84,0a5.5,5.5,0,0,1-1.19-.75,7.84,7.84,0,0,1-1.91-2.26,6.66,6.66,0,0,1-1-3.26,22.82,22.82,0,0,0-2.54,2.57,19.91,19.91,0,0,0-2.29,3.33,24.26,24.26,0,0,0-1.66,3.7,19.67,19.67,0,0,0-.91,3.55,11.84,11.84,0,0,0-.13,2.92,2.47,2.47,0,0,0,.75,1.76,1.88,1.88,0,0,0,1.63.41,5.49,5.49,0,0,0,2.2-1,12.82,12.82,0,0,0,2.45-2.29,19.19,19.19,0,0,0,2.38-3.67q0.69-1.32,1.25-2.6T175,129.93Zm0.44-1.69a12.64,12.64,0,0,0,.5-4.64q-0.25-1.51-.94-1.35T174,123.78A5.1,5.1,0,0,0,175.4,128.24Z"/><path class="cls-1" d="M190.21,125q1.07-1.13,2.32-2.29a22.17,22.17,0,0,1,2.54-2,17.85,17.85,0,0,1,2.42-1.41,3.31,3.31,0,0,1,1.88-.41,3.14,3.14,0,0,1,1.47.72,4.11,4.11,0,0,1,1.13,1.51,5,5,0,0,1,.41,2.07,5.46,5.46,0,0,1-.56,2.35q-0.5,1.07-1.25,2.38t-1.6,2.76q-0.85,1.44-1.63,2.89T196,136.21a11.14,11.14,0,0,0-.85,2.57,6.44,6.44,0,0,0-.09,2.07,2.46,2.46,0,0,0,.6,1.38,1.6,1.6,0,0,0,1.35.44,4.13,4.13,0,0,0,2-.78,10.53,10.53,0,0,0,2.1-1.95,27.73,27.73,0,0,0,2-2.76q1-1.54,1.88-3.17,0.5-.94,1.07-0.06a2.52,2.52,0,0,1,.22,1.54,7,7,0,0,1-.78,2.42,11.79,11.79,0,0,1-1.66,2.54,13.12,13.12,0,0,1-2.26,2.12A11.69,11.69,0,0,1,199,144a7.47,7.47,0,0,1-2.76.55q-4,0-5.08-2.6t0.31-6.68a25.49,25.49,0,0,1,2-4.61q1.29-2.29,2.42-4.17t1.79-3.11q0.66-1.22.22-1.41a2.16,2.16,0,0,0-1,.22,10.71,10.71,0,0,0-1.88,1,24.31,24.31,0,0,0-2.51,1.88,32.12,32.12,0,0,0-2.89,2.79,26.89,26.89,0,0,0-2.6,3.36q-1.22,1.85-2.35,3.92t-2.17,4.27q-1,2.2-2,4.36-0.44,1-1.19.24a4.12,4.12,0,0,1-1.16-2.47,9.27,9.27,0,0,1,.53-3.95,25.2,25.2,0,0,1,1.54-3.77q1.1-2.26,2.48-4.8t2.95-5.15q1.57-2.6,3.08-4.8,0.69-1.07,1.32,0a5.35,5.35,0,0,1,.69,2.73A11.39,11.39,0,0,1,190.21,125Z"/><path class="cls-1" d="M215,115.81a2.42,2.42,0,0,1-.91.78,1.3,1.3,0,0,1-.72.09q-0.69-.12-0.25-1.13t1.44-2.82q0.88-1.69,1.91-3.45t2-3.33a17.62,17.62,0,0,1,1.82-2.45,1.13,1.13,0,0,1,1-.56,1,1,0,0,1,.56.63,2.9,2.9,0,0,1,0,1.88,9.54,9.54,0,0,1-.82,1.88q-0.57.88-1.35,2t-1.63,2.32L216.45,114Q215.63,115.06,215,115.81Z"/><path class="cls-1" d="M221.15,133.13q1.94-2.64,3.89-5.52t3.33-5.27a10.2,10.2,0,0,1,.75-2.89,6,6,0,0,1,1.51-1.95,4.82,4.82,0,0,1,2-1.16,1.41,1.41,0,0,1,1.38.22,1,1,0,0,1,.31,1.1,9,9,0,0,1-.82,1.66l-0.35.6-0.35.6a31.58,31.58,0,0,0-.09,4.17q0.09,2,.28,3.86t0.31,3.61a30.4,30.4,0,0,1,.06,3.36,18.45,18.45,0,0,1-.63,3.64,5.11,5.11,0,0,1-2.2,2.95,12.16,12.16,0,0,0,5.18-3.67,23.62,23.62,0,0,0,3.23-5.05,0.61,0.61,0,0,1,.63-0.44,0.75,0.75,0,0,1,.56.44,3.5,3.5,0,0,1,.06,1.57,7,7,0,0,1-.94,2.57,13.11,13.11,0,0,1-11.11,6.9,14.47,14.47,0,0,1-2.7-.13,9.37,9.37,0,0,1-2.51-.72,8.39,8.39,0,0,1-2.23-1.47,9.49,9.49,0,0,1-1.85-2.38,8.51,8.51,0,0,1-.82-2.32,8.9,8.9,0,0,1-.16-2.45,7.14,7.14,0,0,1,.53-2.23,4.54,4.54,0,0,1,1.26-1.73q1.19-1,1.32.63a4.7,4.7,0,0,1,.06.75A4.47,4.47,0,0,0,221.15,133.13Zm7.09-6.78q-1.38,2.51-3,5.05t-3.48,5.12a17.5,17.5,0,0,0,.88,2.51,8,8,0,0,0,1.13,1.88,4,4,0,0,0,1.35,1.1,1.9,1.9,0,0,0,1.47.09,2.56,2.56,0,0,0,1.51-2.1,20,20,0,0,0,.5-4.2q0.06-2.42-.09-5T228.24,126.35Z"/><path class="cls-1" d="M283.35,128.57a7.68,7.68,0,0,1-.35,5.3,16.07,16.07,0,0,1-3.1,4.68,22.92,22.92,0,0,1-4.18,3.52,13.6,13.6,0,0,1-3.68,1.82,29.59,29.59,0,0,1-3,.66,15.64,15.64,0,0,1-3.29.19,12.64,12.64,0,0,1-3.33-.62,11.14,11.14,0,0,1-3.29-1.78,12.93,12.93,0,0,1-3.6-4.33,16.58,16.58,0,0,1-1.59-7.58,26.08,26.08,0,0,1,1.12-8.13,38.54,38.54,0,0,1,3.17-7.51,45.52,45.52,0,0,1,4.49-6.66,46.35,46.35,0,0,1,5.22-5.49,40.49,40.49,0,0,1,5.38-4.06,22.27,22.27,0,0,1,4.84-2.36,17.86,17.86,0,0,1,5.84-1,7.82,7.82,0,0,1,4.6,1.51,10.63,10.63,0,0,1,2.59,2.55,10.37,10.37,0,0,1,1.43,2.94,9.38,9.38,0,0,1-.54,6.73q-0.7,1.55-1.55,3.64t-1.47,3.79a1.37,1.37,0,0,1-.58.74,0.84,0.84,0,0,1-1-.35,6,6,0,0,1-2.05-2.67,7.38,7.38,0,0,1,0-4.68,21.93,21.93,0,0,1,1-2.94q0.62-1.47,1.08-2.82a11.36,11.36,0,0,0,.58-2.44,2,2,0,0,0-.5-1.7q-0.93-.93-3.52-0.23A22.54,22.54,0,0,0,278.2,102a43.62,43.62,0,0,0-6.77,5.34,43.17,43.17,0,0,0-6.27,7.47A34.35,34.35,0,0,0,261.1,123a36.36,36.36,0,0,0-1.7,7.62,20.12,20.12,0,0,0,.19,6.07,6.88,6.88,0,0,0,1.7,3.68,4.89,4.89,0,0,0,3.95,1.24,11.26,11.26,0,0,0,4.88-1.86,24,24,0,0,0,5-4.37,29.71,29.71,0,0,0,4.22-6.23q-1.86.39-3.64,0.66t-3.17.43a7.6,7.6,0,0,1-4.76-.77,6.53,6.53,0,0,1-2.67-2.94q-0.62-1.24.77-1.24a29.22,29.22,0,0,0,4.49-.35l4.33-.7,4.06-.7a21.63,21.63,0,0,1,3.75-.35,7.79,7.79,0,0,1,4.6,1,6.65,6.65,0,0,1,2.44,2.9,1.26,1.26,0,0,1,.16,1q-0.16.39-.93,0.23a12.77,12.77,0,0,0-2.48-.08Q284.89,128.41,283.35,128.57Z"/><path class="cls-1" d="M300.51,123.59A15.08,15.08,0,0,0,307,120.7q1.13-.75,1.69-0.13a9,9,0,0,1,.88,1.22,6.65,6.65,0,0,1,.69,1.57,4,4,0,0,1,.13,1.73,3,3,0,0,1-.82,1.63,62.45,62.45,0,0,0-4.14,5.18,18.49,18.49,0,0,0-2.76,5.24,7.24,7.24,0,0,0-.28,4.08,2,2,0,0,0,1.85,1.69,3,3,0,0,0,1.91-.6,10.84,10.84,0,0,0,2-1.79,17.19,17.19,0,0,0,1.91-2.67,31.54,31.54,0,0,0,1.66-3.23q0.44-.88.88-0.06a3.46,3.46,0,0,1,.22,1.57,6.84,6.84,0,0,1-.53,2.32,10,10,0,0,1-1.47,2.51,11.41,11.41,0,0,1-2,2,8.85,8.85,0,0,1-2.39,1.29,6.58,6.58,0,0,1-2.51.38,5.71,5.71,0,0,1-2.89-.82,4.73,4.73,0,0,1-1.79-2,6.88,6.88,0,0,1-.63-2.86,10.29,10.29,0,0,1,.53-3.36,16,16,0,0,1,1.41-3.14q0.91-1.57,1.95-3.08t2.13-2.86q1.1-1.35,2-2.42a13.37,13.37,0,0,1-7.34,2.38q-0.88,1.63-2.32,4t-2.92,5q-1.48,2.61-2.7,5.24a22.12,22.12,0,0,0-1.66,4.77,1,1,0,0,1-.38.6,0.61,0.61,0,0,1-.69-0.28,4.9,4.9,0,0,1-1.38-3.51,9.64,9.64,0,0,1,1.26-4.46q0.56-1,1.54-2.54t2.1-3.23q1.13-1.69,2.29-3.33l2-2.89a2.52,2.52,0,0,1-1.16-2.51,8.06,8.06,0,0,1,1.07-3.23,12.62,12.62,0,0,1,2.17-2.82,3.45,3.45,0,0,1,2.13-1.22,1,1,0,0,1,1,.6,3.48,3.48,0,0,1,.22,1.66,11.65,11.65,0,0,1-.44,2.42Q301.08,122.09,300.51,123.59Z"/><path class="cls-1" d="M316.64,132.63q-1.51,4.33-.6,7.06a3.65,3.65,0,0,0,3.42,2.86,7.8,7.8,0,0,0,3.77-.69,15.1,15.1,0,0,0,3.42-2.14,22.92,22.92,0,0,0,2.95-2.92,30.33,30.33,0,0,0,2.35-3.17,0.69,0.69,0,0,1,.56-0.38,0.58,0.58,0,0,1,.5.44,2.88,2.88,0,0,1,0,1.51,5.94,5.94,0,0,1-1.07,2.38,16.56,16.56,0,0,1-5.33,4.83,14.12,14.12,0,0,1-7,2,8.21,8.21,0,0,1-5-1.32,7.83,7.83,0,0,1-2.86-3.58,10.74,10.74,0,0,1-.6-5.08,16.87,16.87,0,0,1,1.79-5.9,23.89,23.89,0,0,1,3.39-5.15,18,18,0,0,1,3.77-3.33,9.79,9.79,0,0,1,3.58-1.47,4.23,4.23,0,0,1,2.89.41,14,14,0,0,1,2.07,1.44,9.94,9.94,0,0,1,1.63,1.82,2.88,2.88,0,0,1,.53,1.51,7.43,7.43,0,0,1-.13,2.1,10.54,10.54,0,0,1-.82,2.45,11.11,11.11,0,0,1-1.6,2.48,11.56,11.56,0,0,1-2.48,2.39,8.14,8.14,0,0,1-2.86,1.29,6.27,6.27,0,0,1-3.11-.09A9,9,0,0,1,316.64,132.63Zm0.56-1.32a3.57,3.57,0,0,0,2.2.69,4.34,4.34,0,0,0,2-.63,8,8,0,0,0,1.76-1.44q0.81-.88,1.51-1.76a20.11,20.11,0,0,0,1.35-2,15.64,15.64,0,0,0,1-2,6,6,0,0,0,.44-1.63,1,1,0,0,0-.25-0.94,1.72,1.72,0,0,0-1.63.06,9,9,0,0,0-2.51,1.63,22.58,22.58,0,0,0-2.79,2.95,22.35,22.35,0,0,0-2.54,4q-0.13.31-.25,0.56Z"/><path class="cls-1" d="M336.72,132.63q-1.51,4.33-.6,7.06a3.65,3.65,0,0,0,3.42,2.86,7.8,7.8,0,0,0,3.77-.69,15.1,15.1,0,0,0,3.42-2.14,22.92,22.92,0,0,0,2.95-2.92,30.33,30.33,0,0,0,2.35-3.17,0.69,0.69,0,0,1,.56-0.38,0.58,0.58,0,0,1,.5.44,2.88,2.88,0,0,1,0,1.51,5.94,5.94,0,0,1-1.07,2.38,16.56,16.56,0,0,1-5.33,4.83,14.12,14.12,0,0,1-7,2,8.21,8.21,0,0,1-5-1.32,7.83,7.83,0,0,1-2.86-3.58,10.74,10.74,0,0,1-.6-5.08,16.87,16.87,0,0,1,1.79-5.9,23.89,23.89,0,0,1,3.39-5.15,18,18,0,0,1,3.77-3.33,9.79,9.79,0,0,1,3.58-1.47,4.23,4.23,0,0,1,2.89.41,14,14,0,0,1,2.07,1.44,9.94,9.94,0,0,1,1.63,1.82,2.88,2.88,0,0,1,.53,1.51,7.43,7.43,0,0,1-.13,2.1,10.54,10.54,0,0,1-.82,2.45,11.11,11.11,0,0,1-1.6,2.48,11.56,11.56,0,0,1-2.48,2.39,8.14,8.14,0,0,1-2.86,1.29,6.27,6.27,0,0,1-3.11-.09A9,9,0,0,1,336.72,132.63Zm0.56-1.32a3.57,3.57,0,0,0,2.2.69,4.34,4.34,0,0,0,2-.63,8,8,0,0,0,1.76-1.44q0.81-.88,1.51-1.76a20.11,20.11,0,0,0,1.35-2,15.64,15.64,0,0,0,1-2,6,6,0,0,0,.44-1.63,1,1,0,0,0-.25-0.94,1.72,1.72,0,0,0-1.63.06,9,9,0,0,0-2.51,1.63,22.58,22.58,0,0,0-2.79,2.95,22.35,22.35,0,0,0-2.54,4q-0.13.31-.25,0.56Z"/><path class="cls-1" d="M358.88,119a5.54,5.54,0,0,1-2.67-.56,4.44,4.44,0,0,1-1.41-1.07,0.87,0.87,0,0,1-.25-1,1,1,0,0,1,.94-0.25,22.1,22.1,0,0,0,2.64,0q1.32-.09,2.57-0.22,1.44-2.64,2.7-4.68t2.07-3.11a1.06,1.06,0,0,1,.85-0.6,0.84,0.84,0,0,1,.66.6,7.19,7.19,0,0,1,.41,3,11.88,11.88,0,0,1-1.22,4.11,4.11,4.11,0,0,1,2.67.6,4.94,4.94,0,0,1,1.22,1.29q0.69,1.19-.75,1.19a12.76,12.76,0,0,0-2.38,0q-1.32.09-2.51,0.28-0.94,1.57-2,3.45t-2.2,3.92q-1.13,2-2.23,4.14t-2,4a14.38,14.38,0,0,0-1,3.23,8.16,8.16,0,0,0-.09,2.73,3.69,3.69,0,0,0,.78,1.88,2.2,2.2,0,0,0,1.6.75,3.7,3.7,0,0,0,2.23-.69,12.42,12.42,0,0,0,2.32-2,21,21,0,0,0,2.23-2.92,37.06,37.06,0,0,0,1.95-3.42,1.08,1.08,0,0,1,.72-0.63q0.41-.06.6,0.63a3.07,3.07,0,0,1,.06,1.63,9.16,9.16,0,0,1-.69,1.95,12.62,12.62,0,0,1-1.19,1.91,15.44,15.44,0,0,1-2.2,2.42,13.37,13.37,0,0,1-3,2,7.34,7.34,0,0,1-3.58.78,5.66,5.66,0,0,1-2.89-.91,5.53,5.53,0,0,1-2-2.42,8.64,8.64,0,0,1-.69-3.77,13.32,13.32,0,0,1,1.16-4.9q1-2.38,2.82-6T358.88,119Z"/><path class="cls-1" d="M368.79,144.36a5.24,5.24,0,0,1-2.92-.72,4.35,4.35,0,0,1-1.63-1.95,6.29,6.29,0,0,1-.44-2.89,13.09,13.09,0,0,1,.78-3.61,37.49,37.49,0,0,1,1.57-3.86q1-2.17,2.17-4.27t2.29-4q1.13-1.88,2-3.14t1.51-.38a4.56,4.56,0,0,1,.88,2.6,8.12,8.12,0,0,1-.94,4.24q-0.5,1.07-1.19,2.32l-1.44,2.6q-0.75,1.35-1.44,2.7t-1.19,2.54a10.39,10.39,0,0,0-1,4.42,1.4,1.4,0,0,0,1.63,1.54,4,4,0,0,0,2.2-.75,12.48,12.48,0,0,0,2.23-1.95,19.1,19.1,0,0,0,2.07-2.73,21.89,21.89,0,0,0,1.66-3.17,0.61,0.61,0,0,1,.53-0.41,0.63,0.63,0,0,1,.47.41q0.75,1.44-.44,3.89a11.79,11.79,0,0,1-1.76,2.67,12,12,0,0,1-2.32,2.07,11.32,11.32,0,0,1-2.6,1.32A8.06,8.06,0,0,1,368.79,144.36ZM379,114.62a3.71,3.71,0,0,1-.44,4.2,1.77,1.77,0,0,1-1.73.5,2.55,2.55,0,0,1-1.79-1.44,3.92,3.92,0,0,1-.6-2.54,3.66,3.66,0,0,1,.91-2.1,1.54,1.54,0,0,1,1.88-.35A3.44,3.44,0,0,1,379,114.62Z"/><path class="cls-1" d="M387.12,125q1.07-1.13,2.32-2.29a22.17,22.17,0,0,1,2.54-2,17.85,17.85,0,0,1,2.42-1.41,3.31,3.31,0,0,1,1.88-.41,3.14,3.14,0,0,1,1.47.72,4.11,4.11,0,0,1,1.13,1.51,5,5,0,0,1,.41,2.07,5.46,5.46,0,0,1-.56,2.35q-0.5,1.07-1.25,2.38t-1.6,2.76q-0.85,1.44-1.63,2.89t-1.35,2.64a11.14,11.14,0,0,0-.85,2.57,6.44,6.44,0,0,0-.09,2.07,2.46,2.46,0,0,0,.6,1.38,1.6,1.6,0,0,0,1.35.44,4.13,4.13,0,0,0,2-.78,10.53,10.53,0,0,0,2.1-1.95,27.73,27.73,0,0,0,2-2.76q1-1.54,1.88-3.17,0.5-.94,1.07-0.06a2.52,2.52,0,0,1,.22,1.54,7,7,0,0,1-.78,2.42,11.79,11.79,0,0,1-1.66,2.54,13.12,13.12,0,0,1-2.26,2.12,11.69,11.69,0,0,1-2.6,1.44,7.47,7.47,0,0,1-2.76.55q-4,0-5.08-2.6t0.31-6.68a25.49,25.49,0,0,1,2-4.61q1.29-2.29,2.42-4.17t1.79-3.11q0.66-1.22.22-1.41a2.16,2.16,0,0,0-1,.22,10.71,10.71,0,0,0-1.88,1,24.31,24.31,0,0,0-2.51,1.88,32.12,32.12,0,0,0-2.89,2.79,26.89,26.89,0,0,0-2.6,3.36q-1.22,1.85-2.35,3.92t-2.17,4.27q-1,2.2-2,4.36-0.44,1-1.19.24a4.12,4.12,0,0,1-1.16-2.47,9.27,9.27,0,0,1,.53-3.95,25.2,25.2,0,0,1,1.54-3.77q1.1-2.26,2.48-4.8t2.95-5.15q1.57-2.6,3.08-4.8,0.69-1.07,1.32,0a5.35,5.35,0,0,1,.69,2.73A11.39,11.39,0,0,1,387.12,125Z"/><path class="cls-1" d="M427.22,137.77a15.17,15.17,0,0,1-5,4.85A39.9,39.9,0,0,1,415,146q-1.32,3.14-2.79,6.43t-3.11,6.15a32.67,32.67,0,0,1-3.42,5,9.72,9.72,0,0,1-3.67,2.86,3,3,0,0,1-1.85.16,3.33,3.33,0,0,1-1.79-1.47,12,12,0,0,1-1.57-3.2,7.77,7.77,0,0,1,.31-4.58,13.67,13.67,0,0,1,2-3.92,18,18,0,0,1,3.08-3.23,26.25,26.25,0,0,1,3.89-2.64,33,33,0,0,1,4.46-2.07q0.5-1.07.91-2.17t0.91-2.18a13.17,13.17,0,0,1-3,2.26,6.89,6.89,0,0,1-3.36.88,4.48,4.48,0,0,1-3.45-1.35,6.18,6.18,0,0,1-1.54-3.51,12.33,12.33,0,0,1,.5-4.93,20,20,0,0,1,2.67-5.59,35.62,35.62,0,0,1,3.67-4.64,24.34,24.34,0,0,1,3.55-3.14,14.2,14.2,0,0,1,3.23-1.76,8,8,0,0,1,2.73-.56,3.31,3.31,0,0,1,2.82,1.26,4.39,4.39,0,0,1,.88,2.89l1.07-1.79q0.5-.85,1-1.66a1.26,1.26,0,0,1,.82-0.75,0.77,0.77,0,0,1,.75.38,5.31,5.31,0,0,1,.88,2.73,7.59,7.59,0,0,1-1,4.18q-0.69,1.44-1.73,3.49l-2.23,4.4q-1.19,2.36-2.35,4.84t-2.17,4.74a30.68,30.68,0,0,0,6.65-4.48,35.59,35.59,0,0,0,4.58-5,0.86,0.86,0,0,1,.63-0.38,0.52,0.52,0,0,1,.44.5,2.85,2.85,0,0,1-.16,1.41A8.69,8.69,0,0,1,427.22,137.77ZM409.52,148a21.46,21.46,0,0,0-5.15,4.14,23.09,23.09,0,0,0-3.23,4.52,14.86,14.86,0,0,0-1.51,3.92,3.44,3.44,0,0,0,0,2.29q0.31,0.44,1.32-.47a17.36,17.36,0,0,0,2.38-2.92q1.38-2,3-5A68,68,0,0,0,409.52,148Zm6.15-15.09a29,29,0,0,0,3.55-8q0.53-2.8-.85-2.93a3.44,3.44,0,0,0-1.91.63,15.14,15.14,0,0,0-2.51,2,32.84,32.84,0,0,0-2.79,3,36.25,36.25,0,0,0-2.76,3.81,23.1,23.1,0,0,0-2,4,16.79,16.79,0,0,0-1,3.53,5.38,5.38,0,0,0,.13,2.52,1.29,1.29,0,0,0,1.29,1,3.58,3.58,0,0,0,2-.69,11.82,11.82,0,0,0,2.17-2,29.88,29.88,0,0,0,2.32-3Q414.48,135,415.67,132.91Z"/><path class="cls-1" d="M428.79,133.13q1.94-2.64,3.89-5.52t3.33-5.27a10.2,10.2,0,0,1,.75-2.89,6,6,0,0,1,1.51-1.95,4.82,4.82,0,0,1,2-1.16,1.41,1.41,0,0,1,1.38.22,1,1,0,0,1,.31,1.1,9,9,0,0,1-.82,1.66l-0.35.6-0.35.6a31.58,31.58,0,0,0-.09,4.17q0.09,2,.28,3.86t0.31,3.61a30.4,30.4,0,0,1,.06,3.36,18.45,18.45,0,0,1-.63,3.64,5.11,5.11,0,0,1-2.2,2.95,12.16,12.16,0,0,0,5.18-3.67,23.62,23.62,0,0,0,3.23-5.05,0.61,0.61,0,0,1,.63-0.44,0.75,0.75,0,0,1,.56.44,3.5,3.5,0,0,1,.06,1.57,7,7,0,0,1-.94,2.57,13.11,13.11,0,0,1-11.11,6.9,14.47,14.47,0,0,1-2.7-.13,9.37,9.37,0,0,1-2.51-.72,8.39,8.39,0,0,1-2.23-1.47,9.49,9.49,0,0,1-1.85-2.38,8.51,8.51,0,0,1-.82-2.32,8.9,8.9,0,0,1-.16-2.45,7.14,7.14,0,0,1,.53-2.23,4.54,4.54,0,0,1,1.26-1.73q1.19-1,1.32.63a4.7,4.7,0,0,1,.06.75A4.47,4.47,0,0,0,428.79,133.13Zm7.09-6.78q-1.38,2.51-3,5.05t-3.48,5.12a17.5,17.5,0,0,0,.88,2.51,8,8,0,0,0,1.13,1.88,4,4,0,0,0,1.35,1.1,1.9,1.9,0,0,0,1.47.09,2.56,2.56,0,0,0,1.51-2.1,20,20,0,0,0,.5-4.2q0.06-2.42-.09-5T435.88,126.35Z"/><circle class="cls-2" cx="153.72" cy="186.61" r="19.45"/><circle class="cls-26" cx="142.24" cy="187.3" r="1.69"/><circle class="cls-26" cx="154.67" cy="188.84" r="1.69"/><path class="cls-27" d="M172.89,203.7a28.4,28.4,0,0,1-38.35,0c-1.24-1.13-1.5-2.74-.7-3.42l2.62-2.31a2.33,2.33,0,0,1,3,.36,21.11,21.11,0,0,0,28.51,0,2.33,2.33,0,0,1,3-.36l2.62,2.31C174.39,201,174.13,202.57,172.89,203.7Z"/><rect class="cls-27" x="165.92" y="200.4" width="6.69" height="24.82" rx="1.87" ry="1.87"/><circle class="cls-2" cx="250" cy="186.28" r="19.45"/><circle class="cls-26" cx="238.52" cy="186.98" r="1.69"/><circle class="cls-26" cx="250.95" cy="188.52" r="1.69"/><path class="cls-27" d="M269.17,203.38a28.4,28.4,0,0,1-38.35,0c-1.24-1.13-1.5-2.74-.7-3.42l2.62-2.31a2.33,2.33,0,0,1,3,.36,21.11,21.11,0,0,0,28.51,0,2.33,2.33,0,0,1,3-.36l2.62,2.31C270.67,200.64,270.41,202.25,269.17,203.38Z"/><path class="cls-28" d="M243.07,196c-0.27-1.29-.92-2.25-1.45-2.14l-9,4a0.34,0.34,0,0,0,.14.66h9.85C243.14,198.42,243.35,197.28,243.07,196Z"/><rect class="cls-27" x="262.2" y="200.07" width="6.69" height="24.82" rx="1.87" ry="1.87"/><circle class="cls-29" cx="346.28" cy="182.96" r="35.53"/><circle class="cls-2" cx="345.98" cy="185.74" r="19.45"/><circle class="cls-26" cx="334.5" cy="186.44" r="1.69"/><circle class="cls-26" cx="346.93" cy="187.98" r="1.69"/><path class="cls-27" d="M365.16,202.84a28.4,28.4,0,0,1-38.35,0c-1.24-1.13-1.5-2.75-.7-3.42l2.62-2.31a2.33,2.33,0,0,1,3,.36,21.11,21.11,0,0,0,28.51,0,2.33,2.33,0,0,1,3-.36l2.62,2.31C366.65,200.1,366.39,201.71,365.16,202.84Z"/><path class="cls-28" d="M339.06,195.45c-0.27-1.29-.92-2.25-1.45-2.14l-9,4a0.34,0.34,0,0,0,.14.66h9.85C339.13,197.88,339.33,196.74,339.06,195.45Z"/><ellipse class="cls-26" cx="346.28" cy="172.32" rx="23.09" ry="7.23"/><path class="cls-26" d="M358.8,144.7c0-1.73-5.61-3.13-12.53-3.13s-12.53,1.4-12.53,3.13h0v25.1h0c0,1.73,5.61,3.13,12.53,3.13s12.53-1.4,12.53-3.13h0V144.7h0Z"/><path class="cls-30" d="M346.28,168.89c-5.86,0-10.83-1-12.55-2.28v3.19h0c0,1.73,5.61,3.13,12.53,3.13s12.53-1.4,12.53-3.13h0v-3.19C357.11,167.93,352.14,168.89,346.28,168.89Z"/><rect class="cls-27" x="358.19" y="199.54" width="6.69" height="24.82" rx="1.87" ry="1.87"/><path class="cls-31" d="M177.47,305.07l-11.36-19.68h5.71l-8.19-14.19c-2.63.78-5.21,1.77-7.89,2.49-5.43,1.7-9.17-3.4-13.58-6.11a10.43,10.43,0,0,0-1.62-.88l-2.05,3.55h4.39l-8.74,15.14h5.71l-11.36,19.68h49Z"/><rect class="cls-32" x="247.21" y="301.28" width="7.47" height="19.92"/><path class="cls-31" d="M275.44,305.3l-11.36-19.68h5.71l-8.19-14.19c-2.63.78-5.21,1.77-7.89,2.49-5.43,1.7-9.17-3.4-13.58-6.11a10.43,10.43,0,0,0-1.62-.88l-2.05,3.55h4.39l-8.74,15.14h5.71L226.46,305.3h49Z"/><circle class="cls-29" cx="346.93" cy="278.83" r="35.8"/><path class="cls-2" d="M354.89,258.9h3.45L353.17,250a57.65,57.65,0,0,1-6.22,2.69,17.83,17.83,0,0,1-8,.38l-3.4,5.88H339l-4.77,8.27a10.66,10.66,0,0,1,1.65.9c4.51,2.78,8.33,8,13.88,6.25,2.73-.73,5.37-1.74,8.06-2.54l-0.56-1h4.49Z"/><path class="cls-2" d="M347,253.36a60.54,60.54,0,0,0,6.53-2.83L347,239.21l-8.4,14.55A18.72,18.72,0,0,0,347,253.36Z"/><rect class="cls-32" x="343.2" y="301.05" width="7.47" height="19.92"/><path class="cls-31" d="M371.42,305.07l-11.36-19.68h5.71l-8.19-14.19c-2.63.78-5.21,1.77-7.89,2.49-5.43,1.7-9.17-3.4-13.58-6.11a10.43,10.43,0,0,0-1.62-.88l-2.05,3.55h4.39l-8.74,15.14h5.71l-11.36,19.68h49Z"/><polygon class="cls-33" points="346.93 237.47 349 241.66 353.62 242.33 350.28 245.59 351.07 250.2 346.93 248.03 342.79 250.2 343.58 245.59 340.24 242.33 344.86 241.66 346.93 237.47"/><polygon class="cls-1" points="153.72 337.15 179.8 382.32 127.64 382.32 153.72 337.15"/><circle class="cls-2" cx="153.72" cy="342.02" r="7.06"/><rect class="cls-2" x="127.64" y="379.08" width="52.16" height="6.75"/><circle class="cls-32" cx="147.26" cy="393.24" r="1.59"/><circle class="cls-32" cx="160.19" cy="393.24" r="1.59"/><circle class="cls-34" cx="250.95" cy="393.24" r="24.59"/><polygon class="cls-1" points="250.95 337.15 277.03 382.32 224.87 382.32 250.95 337.15"/><circle class="cls-2" cx="250.95" cy="342.02" r="7.06"/><rect class="cls-2" x="224.87" y="379.08" width="52.16" height="6.75"/><circle class="cls-32" cx="244.48" cy="393.24" r="1.59"/><circle class="cls-32" cx="257.41" cy="393.24" r="1.59"/><circle class="cls-29" cx="346.28" cy="375.87" r="35.39"/><circle class="cls-34" cx="345.89" cy="392.36" r="24.59"/><polygon class="cls-1" points="345.89 336.28 371.98 381.45 319.81 381.45 345.89 336.28"/><circle class="cls-2" cx="345.89" cy="341.15" r="7.06"/><rect class="cls-2" x="319.81" y="378.21" width="52.16" height="6.75"/><circle class="cls-32" cx="339.43" cy="392.36" r="1.59"/><circle class="cls-32" cx="352.36" cy="392.36" r="1.59"/><circle class="cls-35" cx="346.28" cy="405.75" r="3.64"/><path class="cls-2" d="M355.79,401a11.16,11.16,0,0,1-3.22-1.12,11.37,11.37,0,0,0-3.22-1.13,3.88,3.88,0,0,0-3.07.78,3.88,3.88,0,0,0-3.07-.78,11.37,11.37,0,0,0-3.22,1.13,11.16,11.16,0,0,1-3.22,1.12,5.66,5.66,0,0,1-4.06-1.06,29,29,0,0,0,6.08,5.1c2.26,1.32,5.21,2,7.49-.09,1.94,2.13,5.23,1.41,7.49.09a29,29,0,0,0,6.08-5.1A5.66,5.66,0,0,1,355.79,401Z"/></svg>